<svg version="1.1" viewBox="0 0 44.182 27.722" xmlns="http://www.w3.org/2000/svg">
  <g transform="translate(-82.363 -135.27)">
    <g transform="matrix(.35278 0 0 -.35278 -234.21 205.48)">
      <g transform="translate(966.21 141.35)">
        <path d="m0 0c-0.021 2e-3 -0.043 4e-3 -0.064 6e-3v-0.347h0.029c0.012 0.114 0.024 0.227 0.035 0.341m-5.585 22.25c0.096 1.15 0.192 2.301 0.289 3.468-0.617-0.803-0.833-2.751-0.289-3.468m-6.725-12.472c-0.259-0.55-2e-3 -2.748 0.466-4.012 0.219-0.02 0.462-0.042 0.747-0.068-0.419 1.411-0.813 2.734-1.213 4.08m-12.538-2.014c-0.021 0.08-0.029 0.163-0.062 0.234-0.567 1.223-0.84 2.527-1.064 3.845-0.32 1.892-0.485 3.798-0.191 5.702 0.482 3.119 1.348 6.126 2.797 8.947 0.026 0.051 0.033 0.113 0.054 0.186-0.202 0.277-0.488 0.278-0.774 0.228-0.343-0.058-0.688-0.122-1.02-0.224-0.559-0.173-1.157-0.297-1.654-0.586-1.382-0.804-2.574-1.846-3.398-3.238-1.084-1.831-1.827-3.804-2.322-5.873-0.378-1.58-0.347-3.201-0.159-4.774 0.218-1.821 1.101-3.423 2.453-4.703 0.526-0.498 1.202-0.866 1.933-0.863 1.231 6e-3 2.373 0.401 3.407 1.119m24.745-8.637c-0.167 0.159-0.274 0.249-0.368 0.352-0.221 0.242-0.41 0.5-0.821 0.324-0.165-0.07-0.327 0.073-0.412 0.28-0.967 2.353-1.865 4.728-2.509 7.194-0.063 0.243-0.207 0.464-0.429 0.666-0.03-0.145-0.06-0.29-0.091-0.443-0.039 0.032-0.087 0.054-0.087 0.076-2e-3 0.328-0.013 0.658 8e-3 0.985 0.052 0.805-0.023 1.59-0.345 2.405-0.02-0.32-0.037-0.585-0.053-0.848-0.021-4e-3 -0.042-9e-3 -0.063-0.013-0.025 0.119-0.051 0.238-0.076 0.357-0.02 2e-3 -0.04 3e-3 -0.06 5e-3 0-0.558 0.043-1.122-0.019-1.674-0.03-0.272 0.261-0.258 0.252-0.465-0.017-0.367-3e-3 -0.735-0.022-1.102-0.019-0.346-0.061-0.691-0.096-1.036-0.043-0.425-0.099-0.848-0.129-1.273-0.021-0.286-0.015-0.575-8e-3 -0.861 0.036-1.374 0.116-2.748 0.1-4.121-8e-3 -0.704-0.184-1.405-0.284-2.108-0.044 2e-3 -0.089 3e-3 -0.133 4e-3 -0.031 0.192-0.061 0.383-0.092 0.575-0.033 0.01-0.066 0.02-0.1 0.03-0.124-0.236-0.248-0.473-0.393-0.75-0.151 0.072-0.277 0.123-0.391 0.192-0.067 0.042-0.121 0.171-0.17 0.165-0.691-0.081-0.825 0.536-1.038 0.922-0.761 1.383-1.445 2.807-2.153 4.219-0.21 0.417-0.405 0.841-0.63 1.314-0.392-0.624-1.099-0.469-1.63-0.893 0.059-0.679 0.124-1.43 0.19-2.18 3e-3 -0.041 0.016-0.081 0.022-0.121 0.106-0.756 0.106-0.756-0.52-1.334-0.566 0.097-0.985 0.355-1.111 1-0.145 0.743-0.33 1.479-0.506 2.249-1.102-0.016-2.207-0.193-3.289 0.069-1.056 0.255-2.151 0.437-3.136 0.864-0.993 0.43-1.872 1.121-2.857 1.734 0.104-0.182 0.181-0.315 0.337-0.586-0.248 0.186-0.383 0.287-0.529 0.396-0.917-0.357-1.827-0.766-2.772-1.057-0.493-0.152-1.075-0.217-1.573-0.113-1.016 0.211-2.077 0.29-3.016 0.814-0.316 0.177-0.673 0.28-1.009 0.425-0.072 0.03-0.145 0.082-0.192 0.143-0.718 0.946-1.598 1.761-2.153 2.84-0.749 1.456-1.067 3.006-1.182 4.616-0.147 2.073 0.328 4.039 1.022 5.965 0.6 1.667 1.384 3.243 2.389 4.709 1.201 1.752 2.751 3.1 4.681 3.978 2.271 1.032 4.473 0.805 6.573-0.515 0.466-0.293 0.924-0.598 1.405-0.911-0.118-0.346-0.258-0.545-0.63-0.417-0.112 0.039-0.257 4e-3 -0.357 0.057-0.262 0.139-0.425-0.018-0.603-0.155-0.13-0.1-0.327-0.172-0.379-0.302-0.209-0.521-0.404-1.052-0.546-1.594-0.175-0.668-0.294-1.351-0.434-2.028-0.132-0.633-0.397-1.251-0.187-1.925 0.045-0.143-0.014-0.326-0.049-0.485-0.107-0.498-0.154-0.983-0.116-1.509 0.052-0.706-0.078-1.429-0.162-2.142-0.143-1.212-0.076-2.417 0.064-3.623 0.08-0.69 0.128-1.387 0.267-2.066 0.099-0.484 0.173-1.017 0.679-1.318 0.088-0.052 0.121-0.209 0.161-0.325 0.34-0.972 1.057-1.59 1.927-2.066 1.082-0.592 2.26-0.848 3.473-0.968 0.589-0.058 1.18-0.093 1.852-0.145-0.041 0.54-0.07 1.021-0.116 1.501-0.218 2.309-0.435 4.619-0.665 6.927-0.194 1.939-0.427 3.874-0.602 5.815-0.141 1.554-0.24 3.113-0.085 4.675 0.086 0.867 0.312 1.69 0.664 2.486 0.34 0.77 0.92 1.298 1.626 1.711 0.26 0.152 0.527 0.224 0.829 0.01 0.012-0.41-0.6-0.765-0.112-1.213-0.509-0.496-0.727-1.031-0.753-1.721-0.031-0.82-0.132-1.631 0.072-2.509 0.043 0.45 0.089 0.832 0.114 1.215 0.039 0.583 0.653 0.785 1.096 0.434 0.128-0.101 0.288-0.195 0.358-0.33 0.536-1.035 1.191-2.016 1.325-3.224 0.228-2.059 0.487-4.115 0.735-6.172 0.126-1.039 0.27-2.076 0.387-3.116 0.248-2.204 0.743-4.358 1.305-6.499 0.065-0.247 0.047-0.517 0.068-0.776 6e-3 -0.082 0.011-0.164 0.019-0.245 0.043-0.404 0.716-2.235 1.025-2.719 0 0.504 0.014 0.917-2e-3 1.328-0.071 1.847-0.172 3.692-0.221 5.539-0.054 2.052-0.075 4.104-0.088 6.156-0.013 2.177-0.144 4.345-0.333 6.514-0.125 1.438 0.071 2.873 0.669 4.215 0.449 1.007 1.18 1.751 2.168 2.251 0.302-0.267 0.354-0.531 0.159-0.839-0.055-0.087-0.13-0.172-0.15-0.267-0.03-0.145-0.065-0.317-0.015-0.444 0.069-0.175 0.224-0.073 0.365-0.042 0.349 0.076 0.927-0.354 1.023-0.781 0.112-0.498 0.212-1.004 0.257-1.512 0.112-1.265 0.191-2.534 0.282-3.802 0.014-0.185 0.011-0.371 0.033-0.554 0.348-2.807 0.695-5.614 1.051-8.421 0.165-1.301 0.334-2.602 0.533-3.898 0.09-0.585 0.25-1.162 0.393-1.739 0.037-0.15 0.129-0.287 0.289-0.427 0.041 0.287 0.092 0.573 0.121 0.861 0.299 2.891 0.289 5.771-0.146 8.656-0.354 2.352-0.644 4.717-0.865 7.085-0.159 1.698-0.114 3.411 0.322 5.08 0.363 1.391 0.935 2.669 2.07 3.629 0.74 0.627 1.549 0.699 2.417 0.35 0.447-0.18 0.756-0.509 0.787-1.011 0.065-1.044 0.128-2.089 0.154-3.134 0.05-1.951 0.067-3.901 0.112-5.851 0.012-0.492-0.048-1.048 0.159-1.455 0.257-0.503 0.227-1.014 0.335-1.518 0.119-0.557 0.208-1.123 0.293-1.687 0.252-1.683 0.477-3.371 0.746-5.051 0.38-2.376 1.006-4.693 1.803-6.961 0.318-0.903 0.873-1.662 1.598-2.298 0.265-0.234 0.563-0.22 0.869-0.203 0.271 0.015 0.54 0.048 0.717-0.286-0.47-0.456-0.87-1.012-1.675-0.901-0.18 0.025-0.377-0.119-0.571-0.148-0.166-0.025-0.393-0.064-0.5 0.02-0.597 0.467-1.173 0.96-1.741 1.462-0.789 0.697-1.238 1.625-1.662 2.559-0.655 1.445-1.066 2.972-1.456 4.504-0.091 0.358-0.112 0.765-0.306 1.057-0.271 0.409-0.235 0.836-0.271 1.265-0.062 0.734-0.077 1.473-0.157 2.204-0.137 1.248-0.052 2.495-0.05 3.742 3e-3 3.014 0.017 6.028 0.04 9.042 6e-3 0.841 0.06 1.682 0.084 2.524 5e-3 0.197-0.025 0.396-0.038 0.6-0.362 0.099-0.595-0.037-0.725-0.279-0.509-0.951-1.061-1.889-1.108-3.015-0.023-0.552-0.078-1.104-0.143-1.653-0.182-1.546-0.019-3.091 0.245-4.595 0.312-1.783 0.527-3.569 0.681-5.367 0.022-0.259-0.042-0.525-0.032-0.787 0.019-0.471 0.012-0.95 0.105-1.408 0.261-1.287 0.199-2.566 0.03-3.854-0.143-1.098-0.224-2.204-0.355-3.303-0.087-0.73-0.23-1.453-0.318-2.183-0.076-0.631-0.15-1.266-0.149-1.9 2e-3 -0.515 0.057-1.009-0.403-1.383-0.085-0.07-0.116-0.206-0.212-0.388" fill="#1c1b1b"/>
      </g>
      <g transform="translate(1001.2 174.07)" >
        <path d="m0 0c0.835-0.665 0.807-1.431 0.686-2.258-0.142-0.972-0.149-1.965-0.303-2.935-0.393-2.472-0.873-4.93-1.247-7.405-0.288-1.906-0.465-3.83-0.694-5.745-0.236-1.977-0.471-3.953-0.713-5.928-0.08-0.651-0.155-1.305-0.28-1.947-0.147-0.756 0.234-1.347 0.528-1.972 0.078-0.167 0.176-0.328 0.226-0.503 0.124-0.435-0.071-0.867-0.465-1.084-0.152-0.084-0.303-0.168-0.503-0.279 0.02 0.186 0.037 0.323 0.048 0.461 9e-3 0.118 0.012 0.238-0.022 0.359-1.271-5.124-2.042-10.335-2.782-15.581-0.14 0.04-0.212 0.061-0.333 0.096-0.087-0.33-0.188-0.657-0.259-0.989-0.196-0.92-0.425-1.835-0.556-2.765-0.168-1.197-0.24-2.408-0.381-3.609-0.059-0.502-0.191-0.996-0.301-1.546-0.096 0.139-0.195 0.256-0.265 0.387-0.172 0.321-0.39 0.633-0.48 0.978-0.119 0.449-0.179 0.926-0.18 1.391-1e-3 0.984 0.03 1.97 0.088 2.953 0.095 1.596 0.176 3.195 0.345 4.784 0.257 2.407 0.545 4.811 0.895 7.206 0.218 1.5 0.595 2.976 0.861 4.471 0.302 1.695 0.531 3.404 0.847 5.097 0.138 0.738-0.014 1.358-0.378 1.987-0.472 0.815-0.928 1.644-1.323 2.498-0.568 1.227-1.091 2.476-1.604 3.728-1.004 2.453-1.786 4.977-2.312 7.576-0.211 1.042-0.404 2.089-0.603 3.133-0.077 0.404-0.012 0.776 0.278 1.085 0.155 0.165 0.323 0.215 0.545 0.078 0.355-0.217 0.682-0.438 0.846-0.85 0.358-0.893 0.797-1.758 1.09-2.671 0.52-1.618 0.936-3.27 1.431-4.896 0.437-1.433 0.922-2.851 1.39-4.274 0.281-0.856 0.568-1.712 0.86-2.565 0.064-0.187 0.159-0.363 0.345-0.544 0.046 0.182 0.112 0.362 0.134 0.547 0.172 1.425 0.327 2.852 0.501 4.276 0.188 1.528 0.394 3.053 0.589 4.58 0.44 3.45 1.214 6.826 2.259 10.14 0.209 0.662 0.462 1.311 0.734 1.95 0.095 0.224 0.308 0.399 0.458 0.585" fill="#1c1b1b"/>
      </g>
      <g transform="translate(977.76 158.44)" >
        <path d="m0 0c0.04-0.015 0.08-0.029 0.12-0.043 0.797 2.29 1.677 4.529 3.618 6.126-0.028-0.117-0.089-0.212-0.155-0.304-0.487-0.685-1.009-1.348-1.456-2.058-0.794-1.262-1.348-2.633-1.584-4.11-0.181-1.128-0.359-2.262-0.431-3.4-0.071-1.121-0.072-2.255 0.012-3.375 0.117-1.556 0.727-2.982 1.39-4.376 0.322-0.676 0.791-1.247 1.375-1.718 0.872-0.704 2.251-0.834 3.261-0.287-0.076 0.137-0.144 0.281-0.232 0.411-0.439 0.649-0.83 1.318-1.009 2.094-0.34 1.483-0.584 2.98-0.669 4.501-0.127 2.265 0.068 4.511 0.378 6.753 0.363 2.625 1.265 5.089 2.212 7.539 0.173 0.448 0.61 0.548 1.033 0.302 0.248-0.145 0.508-0.269 0.763-0.403-0.921 0.997-2.587 1.235-3.759 0.559-0.475-0.274-0.938-0.612-1.312-1.009-1.77-1.881-2.903-4.111-3.495-6.619-0.045-0.188-0.041-0.388-0.06-0.583m10.537 5.093c-0.044-0.017-0.131-0.051-0.245-0.095-0.439 0.792-0.769 1.687-1.776 2.119-0.058-0.253-0.179-0.49-0.152-0.708 0.108-0.883-0.245-1.696-0.341-2.545-0.152-1.343-0.343-2.682-0.464-4.028-0.124-1.388-0.206-2.781-0.265-4.173-0.089-2.102 0.115-4.18 0.632-6.223 0.197-0.781 0.492-1.526 0.947-2.192 0.567-0.829 1.311-1.419 2.362-1.475 1.085-0.059 2.171-0.09 3.256-0.126 0.246-8e-3 0.496 0.022 0.661-0.297-1.037-0.339-2.071-0.585-3.15-0.662-0.419-0.029-0.832-0.144-1.353-0.238 0.171-0.172 0.267-0.269 0.363-0.365-0.026-0.022-0.059-0.07-0.082-0.066-0.614 0.116-1.207 0.35-1.856 0.27-0.127-0.016-0.281 0.134-0.414 0.222-0.46 0.305-0.901 0.641-1.379 0.915-0.249 0.143-0.559 0.181-0.867 0.274-0.17-0.43-0.46-0.473-0.814-0.468-0.614 8e-3 -1.229-0.063-1.843-0.061-0.97 3e-3 -1.878 0.299-2.652 0.854-0.777 0.558-1.518 1.186-2.189 1.867-1.484 1.505-2.175 3.383-2.443 5.455-0.327 2.517 0.026 4.947 0.825 7.333 0.773 2.31 1.771 4.506 3.3 6.425 0.782 0.982 1.627 1.92 2.777 2.486 1.32 0.649 2.651 0.756 4.002 7e-3 0.755-0.42 1.543-0.778 2.116-1.449 0.122-0.143 0.195-0.339 0.254-0.523 0.266-0.828 0.519-1.661 0.79-2.533" fill="#1c1b1b"/>
      </g>
      <g transform="translate(967.75 158.25)" >
        <path d="m0 0c0.087-0.596 0.177-1.192 0.26-1.789 0.084-0.606 0.177-1.212 0.236-1.821 0.036-0.38 0.148-0.763-0.137-1.137-0.125-0.164-0.07-0.463-0.159-0.704-0.108 0.651-0.27 1.308-0.163 1.959 0.117 0.715 0.082 1.416 9e-3 2.122-0.047 0.453-0.119 0.903-0.18 1.353 0.044 6e-3 0.089 0.012 0.134 0.017" fill="#1c1b1b"/>
      </g>
      <g transform="translate(985.53 157.31)" >
        <path d="m0 0v-1.39c-0.274 0.357-0.269 0.575 0 1.39" fill="#1c1b1b"/>
      </g>
      <g transform="translate(961.49 148.16)" >
        <path d="m0 0v-2.112c-0.02 0-0.04-1e-3 -0.061-1e-3v2.112c0.021 1e-3 0.041 1e-3 0.061 1e-3" fill="#1c1b1b"/>
      </g>
      <g transform="translate(986.22 162.44)" >
        <path d="m0 0c-0.057-0.411-0.105-0.823-0.178-1.231-0.017-0.092-0.119-0.168-0.182-0.252l9e-3 -9e-3c0.071 0.391 0.136 0.784 0.218 1.174 0.023 0.108 0.096 0.204 0.147 0.305z" fill="#1c1b1b"/>
      </g>
      <g transform="translate(961.5 141.61)" >
        <path d="M 0,0 0.067,1.077 H 0.092 V -0.002 C 0.062,-0.001 0.031,0 0,0" fill="#1c1b1b"/>
      </g>
      <g transform="translate(985.54 157.86)" >
        <path d="m0 0c0.021 0.368 0.043 0.735 0.065 1.103 0.024-2e-3 0.048-4e-3 0.072-5e-3v-1.108c-0.045 3e-3 -0.091 7e-3 -0.137 0.01" fill="#1c1b1b"/>
      </g>
      <g transform="translate(967.48 169.18)" >
        <path d="M 0,0 C 0.047,0.148 0.094,0.296 0.158,0.499 0.395,0.208 0.174,0.11 0.131,-0.039 0.088,-0.026 0.044,-0.013 0,0" fill="#1c1b1b"/>
      </g>
      <g transform="translate(909.15 188.29)" >
        <path d="m0 0h0.895-0.897c-1e-3 -1e-3 2e-3 0 2e-3 0" fill="#1c1b1b"/>
      </g>
      <g transform="translate(985.85 160.08)" >
        <path d="m0 0-0.093-0.591c-0.028 8e-3 -0.057 0.015-0.085 0.023 0.063 0.184 0.127 0.367 0.188 0.553-1e-3 2e-3 -0.01 0.015-0.01 0.015" fill="#1c1b1b"/>
      </g>
      <g transform="translate(986.23 162.42)" >
        <path d="M 0,0 C -0.094,0.22 -0.062,0.415 0.152,0.575 0.095,0.388 0.039,0.202 -0.015,0.015 -0.014,0.013 0,0 0,0" fill="#1c1b1b"/>
      </g>
      <g transform="translate(910.86 188.44)" >
        <path d="m0 0h0.336c1e-3 -0.013 2e-3 -0.025 3e-3 -0.038-0.117-0.01-0.234-0.021-0.351-0.031l0.012 0.069" fill="#1c1b1b"/>
      </g>
      <g transform="translate(985.86 160.95)" >
        <path d="m0 0c-3e-3 -0.289-6e-3 -0.577-8e-3 -0.868 2e-3 -3e-3 0.011-0.015 0.012-0.017 5e-3 0.288 7e-3 0.579 7e-3 0.873-2e-3 3e-3 -0.011 0.012-0.011 0.012" fill="#1c1b1b"/>
      </g>
      <g transform="translate(960.91 167.06)" >
        <path d="m0 0c-0.098-1.167-0.194-2.318-0.29-3.469" fill="#1c1b1b"/>
      </g>
      <g transform="translate(966.21 141.35)" >
        <path d="m0 0c-0.011-0.114-0.023-0.227-0.035-0.341h-0.029v0.347c0.021-2e-3 0.043-4e-3 0.064-6e-3" fill="#1c1b1b"/>
      </g>
      <g transform="translate(1021.3 163.33)" >
        <path d="m0 0-0.245 1.906c0.208-0.631 0.499-1.248 0.245-1.906m-1.137-0.985c-0.18 1.566-0.366 3.187-0.552 4.814 0.368-0.683 0.675-3.427 0.552-4.814m-1.616-5.823c-0.247-0.749-0.333-1.549-0.544-2.312-0.18-0.65-0.433-1.28-0.659-1.917-0.074-0.208-0.192-0.409-0.015-0.641 0.354 0.571 0.695 1.121 1.036 1.671l0.087-0.042c-0.059-0.139-0.102-0.289-0.18-0.417-0.537-0.88-0.86-1.859-1.196-2.817-0.361-1.026-0.825-1.993-1.3-2.962-0.062-0.128-0.17-0.285-0.14-0.396 0.116-0.422-0.13-0.701-0.327-1.007-0.411-0.638-0.814-1.28-1.229-1.914-0.139-0.212-0.282-0.359-0.583-0.448-0.017-5e-3 -0.032-0.013-0.047-0.019-0.116 0.057-0.231 0.115-0.334 0.177-0.039-0.069 0.077-0.019 0.033-0.115-0.072 0.043-0.137 0.098-0.203 0.155 0.026 0.069 0.051 0.136 0.079 0.208-0.158-8e-3 -0.288 0.016-0.403 0.057-0.019 0.033-0.037 0.07-0.041 0.094-0.051 0.056-0.052-0.017-0.095 0.013l0.023 0.068c-0.092-0.024-0.067 0.118-0.145 0.119-0.014-0.025-0.04-0.018-0.062-6e-3 0.029 0.071-0.074 0.025-0.043 0.088l-3e-3 -5e-3c-0.014 7e-3 -0.026 7e-3 -0.038 0.026-0.014-5e-3 -0.067-0.02-0.13-0.039-0.042 0.038-0.084 0.074-0.128 0.11-0.744 0.608-1.286 1.373-1.756 2.193-0.171 0.298-0.255 0.644-0.393 0.963-0.324 0.752-0.645 1.506-0.99 2.249-0.517 1.112-0.719 2.306-0.932 3.497-0.296 1.646-0.323 3.305-0.207 4.973 0.225-0.049 0.285 0.056 0.307 0.274 0.081 0.796 0.16 1.593 0.286 2.383 0.174 1.089 0.358 2.18 0.594 3.258 0.39 1.782 0.798 3.569 1.577 5.228 0.53 1.129 1.18 2.203 1.795 3.291 0.144 0.255 0.313 0.48 0.181 0.789 0.601 0.128 0.996 0.518 1.287 1.041l-1.252-0.835-0.035-0.206 0.035 0.206c0.365 0.432 0.862 0.813 1.057 1.312 0.165 0.424 0.483 0.657 0.715 0.983 0.169 0.236 0.451 0.397 0.696 0.573 0.242 0.176 0.501 0.329 0.819 0.536 0.148-0.28 0.323-0.514 0.402-0.777 0.474-1.57 0.953-3.14 1.379-4.723 0.416-1.543 0.799-3.095 1.14-4.656 0.183-0.838 0.268-1.701 0.358-2.556 0.097-0.913 0.212-1.832 0.204-2.747-0.014-1.683-0.145-3.355-0.68-4.978m-2.869-13.337c-0.072-0.176-0.106-0.26-0.141-0.344 3e-3 3e-3 6e-3 7e-3 9e-3 0.01-0.133-0.206-0.281-0.397-0.441-0.577-0.039 0.018-0.078 0.037-0.116 0.052-0.05 6e-3 -0.101 0.012-0.154 0.017-0.046 2e-3 -0.053 0.041-0.049 0.097-0.011 2e-3 -0.019 4e-3 -0.027 6e-3 0.217 0.304 0.489 0.575 0.919 0.739m-3.059-0.592h1e-3s-1e-3 0-1e-3 -1e-3zm9.946 19.452c0.015 0.489 0.085 0.984 0.029 1.464-0.108 0.934-0.244 1.871-0.45 2.788-0.219 0.977-0.547 1.929-0.799 2.9-0.334 1.287-1.048 2.433-1.309 3.756-0.185 0.939-0.562 1.842-0.888 2.748-0.263 0.731-0.535 1.463-0.88 2.157-0.637 1.284-1.393 2.51-1.976 3.816-0.341 0.764-0.784 1.428-1.292 2.07-0.203 0.257-0.38 0.536-0.591 0.786-0.646 0.766-1.28 1.545-1.967 2.273-0.273 0.29-0.664 0.474-1.017 0.678-0.306 0.179-0.622 0.156-0.924-0.054-0.043-0.473 0.25-0.762 0.499-1.089 0.28-0.37 0.623-0.753 0.726-1.18 0.118-0.494 0.275-0.931 0.566-1.337 0.793-1.104 1.447-2.287 1.999-3.529 0.242-0.542 0.522-1.067 0.771-1.607 0.157-0.341 0.4-0.657 0.381-1.112-0.22 0-0.404-0.019-0.584 4e-3 -0.601 0.074-1.141-0.107-1.648-0.397-2.097-1.199-3.814-2.787-4.903-4.968-1.57-3.146-2.565-6.483-3.095-9.95-0.313-2.047-0.377-4.115-0.261-6.192 0.116-2.084 0.484-4.113 1.153-6.081 0.815-2.398 2.364-4.345 3.97-6.249 0.026-0.031 0.056-0.063 0.091-0.08 0.502-0.252 1.006-0.502 1.565-0.779-1.067-2.291-2.185-4.53-3.387-6.735 0.109 0.064 0.173 0.157 0.237 0.249 0.341 0.488 0.678 0.977 1.023 1.461 0.116 0.162 0.237 0.356 0.512 0.14-0.352-0.658-0.814-1.264-0.844-2.156 0.267 0.26 0.488 0.456 0.689 0.672 0.484 0.523 0.954 1.057 1.441 1.578 0.062 0.066 0.183 0.077 0.277 0.114-0.011 8e-3 -0.02 0.016-0.029 0.023 0.294 0.31 0.581 0.584 1.035 0.728 0.471 0.148 0.831 0.537 1.101 1.009 0.226 0.397 0.489 0.772 0.753 1.148 0.341-0.117 0.66-0.321 0.997-0.525 0.269-0.165 1.051-0.477 1.337-0.635 0.041-0.021 0.083-0.042 0.125-0.062-0.067 0.044-0.067 0.044-0.135 0.087 0.206 0.021 0.392 0.04 0.565 0.047-0.019 0.045-0.014 0.083-0.068 0.152l0.076-0.046c0.103 0.091 0.273 0.043 0.365 0.07-0.031-0.054 0.03-0.081 0.084-0.102l-0.013 0.043c0.209-0.072 0.467-0.083 0.657-0.128 0.026-6e-3 0.042-0.032 0.05-0.054l0.192 7e-3c-0.029-0.076 0.139-0.098 0.042-0.131 0.155 0.066 0.284-0.017 0.433 0.054 0.47-0.074 0.978-0.097 1.478-0.039l-7e-3 0.031c0.177 0.027 0.347 0.159 0.544 0.078 0.161 0.084 0.376 0.109 0.457 0.265 0.172-1e-3 0.25 0.071 0.421 0.09-0.031 0.087 0.174 0.076 0.102 0.15-0.093 0.129-0.113 0.033-0.192 0.138l-2e-3 -0.027c-0.415 0.183-0.835 0.315-1.263 0.419-0.299-0.024-0.602 0.083-0.903 0.113-0.325 0.027-0.679 0.038-0.965 0.027-0.069-9e-3 -0.103 0.068-0.15 0.117-0.257 0.016-0.566 0.113-0.853 0.139 5e-3 -1e-3 9e-3 -4e-3 0.012-6e-3 -0.151 0.024-0.24 0.132-0.385 0.158-6e-3 -0.023-0.028-0.018-0.042-0.027 5e-3 0.106-0.9 0.022-0.931 0.107-0.016 0-0.033 0-0.049 3e-3 -0.142 0.07-0.27 0.185-0.392 0.291-0.124 0.104-0.241 0.202-0.366 0.243-0.072-0.027-0.149-0.044-0.216-0.079-0.026 0.06-0.069-0.02-0.116 0.015-0.045 0.258-0.156 0.207-0.12 0.107-0.02 3e-3 -0.039 0.01-0.058 0.015 0.106 0.212 0.2 0.431 0.304 0.644 0.509 0.592 0.848 1.283 1.245 1.941-0.034 0.025-0.069 0.05-0.103 0.075l-0.786-0.703c-0.039 0.031-0.077 0.06-0.115 0.09 0.107 0.184 0.22 0.365 0.318 0.553 0.099 0.19 0.311 0.339 0.273 0.681-0.198-0.266-0.34-0.458-0.489-0.657-0.062 0.083-0.102 0.137-0.142 0.192-0.544-0.709-1.087-1.417-1.63-2.125-0.01 9e-3 -0.017 0.021-0.028 0.027-0.056 0.042-0.117 0.078-0.177 0.115 0.864 1.583 1.908 3.054 2.894 4.561 0.076 0.117 0.202 0.201 0.296 0.308 0.174 0.196 0.36 0.384 0.507 0.598 0.402 0.584 0.787 1.18 1.179 1.771l2e-3 -2e-3c2e-3 5e-3 4e-3 0.011 7e-3 0.016h-0.01-9e-3c0.496 0.329 0.791 0.797 0.969 1.357 0.061 0.193 0.188 0.364 0.272 0.551 0.057 0.128 0.105 0.264 0.133 0.402 0.056 0.274 0.045 0.573 0.151 0.823 0.675 1.59 0.892 3.282 1.125 4.966 0.145 1.047 0.206 2.105 0.305 3.158 0.092-1.822-0.121-3.631-0.238-5.444-0.012-0.185-0.112-0.384 0.106-0.663 0.484 0.982 0.389 2.011 0.705 2.938 0.281-0.508-0.176-1.017 0.022-1.532 0.04 0.045 0.082 0.07 0.086 0.099 0.19 1.553 0.253 3.108 0.122 4.669-0.012 0.138 0.017 0.279 0.021 0.419" fill="#1c1b1b"/>
      </g>
      <g transform="translate(1019.1 149.44)" >
        <path d="m0 0c-0.254-0.599-0.557-1.176-0.841-1.762-0.123-0.253-0.253-0.503-0.379-0.755 0.757 0.739 2.336 4.232 2.504 5.419-0.141-0.164-0.212-0.215-0.239-0.283-0.35-0.872-0.678-1.754-1.045-2.619" fill="#1c1b1b"/>
      </g>
      <g transform="translate(1018.3 148.41)" >
        <path d="M 0,0 C 0.192,0.396 0.365,0.801 0.58,1.182 0.736,1.458 0.654,1.667 0.49,1.878 0.278,1.4 0.07,0.919 -0.15,0.444 -0.225,0.283 -0.289,0.146 0,0" fill="#1c1b1b"/>
      </g>
      <g transform="translate(1020.8 152.67)" >
        <path d="M 0,0 C 0.046,-0.015 0.092,-0.031 0.138,-0.046 0.284,0.393 0.43,0.831 0.576,1.269 0.523,1.287 0.471,1.304 0.418,1.322 0.23,0.897 -0.075,0.512 0,0" fill="#1c1b1b"/>
      </g>
      <g transform="translate(1021.9 153.36)" >
        <path d="m0 0c0.036 0.127 0.073 0.254 0.109 0.381-0.019 6e-3 -0.038 0.012-0.057 0.017-0.038-0.127-0.075-0.253-0.112-0.38l0.06-0.018" fill="#1c1b1b"/>
      </g>
      <g transform="translate(1014.4 146.28)" >
        <path d="m0 0c0.024-0.013 0.048-0.026 0.072-0.04 0.046 0.081 0.092 0.161 0.138 0.24-0.028 0.015-0.056 0.029-0.084 0.043z" fill="#1c1b1b"/>
      </g>
      <g transform="translate(904.8 158.97)" >
        <path d="m0 0c-0.278 0.335-1.526-0.557-1.526-0.557l0.278 14.368s1.525-14.146 1.248-13.811m38.487 33.724c-0.324 0.053-0.649 0.1-0.973 0.149-2.157 0.327-4.328 0.452-6.508 0.447-2.557-6e-3 -5.072-0.441-7.605-0.696-1.777-0.18-3.554-0.358-5.332-0.528-0.214-0.02-0.434 0.017-0.683 0.029-0.048 0.47-0.107 0.875-0.124 1.282-0.012 0.297-0.205 0.439-0.413 0.565-0.219 0.132-0.417-3e-3 -0.542-0.158-0.161-0.2-0.324-0.432-0.381-0.674-0.105-0.452-0.135-0.923-0.202-1.432-4.79-0.452-9.598-0.6-14.351-1.322-0.136-0.021-0.277-3e-3 -0.499-3e-3 0.078 0.718 0.163 1.4 0.221 2.084 0.06 0.702-0.113 1.343-0.524 1.946-0.122-0.13-0.195-0.208-0.268-0.287 0.214 1.652-0.146 3.235-0.301 4.928-0.201-0.102-0.377-0.132-0.419-0.223-0.249-0.538-0.541-1.071-0.679-1.64-0.429-1.763-0.474-3.576-0.6-5.377-0.053-0.754-0.113-1.508-0.174-2.314-0.55-0.134-1.083-0.268-1.618-0.396-1.117-0.266-2.237-0.523-3.352-0.797-0.317-0.078-0.657-0.172-0.56-0.713 1.788-0.213 3.588 0.105 5.422 0.073-0.071-1.201-0.151-2.326-0.201-3.451-0.111-2.482-0.214-4.964-0.307-7.446-0.119-3.201-0.2-6.403-0.346-9.602-0.133-2.912-0.327-5.821-0.504-8.731-0.025-0.402-0.102-0.801-0.157-1.212-0.424-0.053-0.793-0.081-1.154-0.147-0.562-0.102-1.128-0.201-1.677-0.357-0.431-0.123-0.485-0.389-0.232-0.748 0.245-0.348 0.585-0.482 0.997-0.521 0.586-0.056 1.169-0.145 1.781-0.223-0.013-0.148-0.014-0.248-0.03-0.344-0.399-2.344-0.751-4.698-1.374-6.998-0.062-0.226-0.176-0.496-0.353-0.619-0.315-0.217-0.297-0.519-0.339-0.811-0.087-0.606-0.156-1.215-0.225-1.824-0.028-0.244-0.093-0.504-0.037-0.731 0.054-0.217 0.203-0.457 0.383-0.584 0.229-0.162 0.464 6e-3 0.657 0.179 0.311 0.279 0.544 0.605 0.667 1.012 0.337 1.119 0.667 2.241 1.03 3.351 0.543 1.657 1.052 3.321 1.391 5.033 0.143 0.72 0.28 1.443 0.424 2.189 0.434 0.09 0.829 0.172 1.267 0.263 0.072-0.233 0.137-0.423 0.19-0.616 0.132-0.475 0.251-0.952 0.388-1.425 0.651-2.237 1.465-4.404 2.828-6.32 1.464-2.057 3.387-3.52 5.831-4.204 1.509-0.422 3.079-0.448 4.64-0.462 0.235-3e-3 0.471 0.028 0.839 0.052-0.278 0.199-0.432 0.31-0.627 0.449 0.413 0.317 0.855 0.295 1.265 0.324 0.627 0.045 1.207 0.057 1.785 0.458 0.571 0.396 1.048 0.912 1.659 1.249 0.046 0.026 0.081 0.163 0.054 0.208-0.044 0.07-0.138 0.131-0.221 0.151-0.071 0.018-0.159-0.023-0.237-0.047-1.426-0.439-2.865-0.454-4.322-0.165-1.739 0.344-3.449 0.781-4.982 1.708-1.427 0.863-2.623 1.96-3.392 3.481-0.821 1.621-1.376 3.335-1.871 5.072-0.059 0.207-0.069 0.428-0.095 0.602 0.29 0.126 0.612 0.165 0.701 0.329 0.129 0.238 0.328 0.179 0.484 0.248 0.221 0.097 0.476 0.118 0.714 0.179 0.057 0.014 0.146 0.048 0.154 0.086 0.071 0.335 0.382 0.247 0.583 0.32 0.478 0.176 0.983 0.278 1.457 0.46 0.416 0.16 0.796 0.408 1.207 0.582 0.453 0.192 0.515 0.263 0.402 0.721-0.042 0.169-0.117 0.33-0.186 0.521-2.054-0.571-4.054-1.161-6.175-1.141-0.34 1.321-0.693 2.561-0.976 3.817-0.737 3.276-1.121 6.597-1.139 9.955-0.014 2.689 0.025 5.38 0.035 8.07 3e-3 0.739 0.032 1.482-0.032 2.217-0.138 1.603-0.039 3.192 0.132 4.784 0.051 0.478 0.279 0.707 0.707 0.781 0.726 0.126 1.455 0.228 2.181 0.353 0.233 0.04 0.459 0.119 0.688 0.18l2e-3 1e-3c-0.1-0.018-0.201-0.046-0.302-0.052-0.077-4e-3 -0.155 0.021-0.233 0.033 0.92 0.19 1.837 0.269 2.754 0.345 1.535 0.129 3.069 0.26 4.604 0.383 1.022 0.083 2.047 0.155 3.07 0.232 0.348 0.026 0.697 0.066 1.045 0.069 0.378 4e-3 0.443-0.096 0.417-0.477-0.027-0.409-0.075-0.822-0.048-1.228 0.126-1.864 0.283-3.726 0.414-5.589 0.154-2.192 0.343-4.382 0.423-6.576 0.074-2.009 0.015-4.024 0.028-6.036 6e-3 -0.985 0.022-1.971 0.072-2.954 0.114-2.261 0.495-4.486 0.924-6.706 0.56-2.901 1.075-5.811 1.621-8.716 0.326-1.737 0.789-3.44 1.375-5.107 0.258-0.734 0.621-1.414 1.306-1.898 0.171 0.153 0.344 0.412 0.452 0.387 0.396-0.093 0.362 0.169 0.367 0.377 7e-3 0.344 0.041 0.707-0.049 1.03-0.295 1.06-0.299 2.15-0.384 3.231-0.012 0.157 0.055 0.319 0.08 0.479 0.022 0.139 0.057 0.282 0.048 0.42-0.055 0.818-0.109 1.635-0.188 2.451-0.046 0.468-0.154 0.93-0.206 1.398-0.097 0.877-0.158 1.758-0.263 2.634-0.14 1.181-0.285 2.362-0.469 3.538-0.221 1.415-0.683 2.791-0.699 4.242-2e-3 0.203-0.066 0.405-0.092 0.608-0.146 1.138-0.372 2.275-0.415 3.417-0.074 1.945-0.059 3.893-0.029 5.84 0.035 2.335-0.35 4.621-0.737 6.907-0.357 2.103-0.744 4.202-1.097 6.306-0.062 0.372-0.173 0.76-0.036 1.132 0.231 0.089 0.586 0.132 0.617 0.256 0.102 0.405 0.424 0.331 0.669 0.397 0.254 0.069 0.53 0.059 0.792 0.108 0.765 0.141 1.524 0.326 2.294 0.435 1.293 0.183 2.596 0.269 3.888 0.481 1.432 0.234 2.883 0.357 4.322 0.528 0.027 0.444 0.103 0.553 0.501 0.606 0.876 0.118 1.755 0.216 2.633 0.322-0.303-0.034-0.611-0.041-0.919-0.032-0.279 9e-3 -0.565-6e-3 -0.833 0.113 1.372 0.159 2.738 0.268 4.106 0.341 0.594 0.032 1.191-0.013 1.787-0.011 0.182 0 0.376 8e-3 0.541 0.073 0.129 0.05 0.29 0.18 0.314 0.299 0.041 0.208-0.127 0.331-0.332 0.365" fill="#1c1b1b"/>
      </g>
    </g>
  </g>
</svg>
