<svg version="1.1" viewBox="0 0 14.203 14.203" xmlns="http://www.w3.org/2000/svg">
  <g transform="translate(-103.64 202.16)">
    <g transform="matrix(.35278 0 0 -.35278 110.75 -197.43)">
      <path d="m0 0c3.706 0 6.71-3.004 6.71-6.71s-3.004-6.71-6.71-6.71-6.71 3.004-6.71 6.71 3.004 6.71 6.71 6.71m0 3.628c-5.709 0-10.338-4.629-10.338-10.338s4.629-10.335 10.338-10.335 10.336 4.626 10.336 10.335-4.627 10.338-10.336 10.338zm10.745 2.822c-1.333 0-2.415-1.08-2.415-2.414s1.082-2.416 2.415-2.416c1.334 0 2.416 1.082 2.416 2.416 0 1.333-1.082 2.415-2.416 2.415zm-12.551 3.342c0.536 1e-3 1.134 0 1.806 0 5.375 0 6.012-0.019 8.134-0.115 1.963-0.09 3.028-0.418 3.738-0.694 0.939-0.364 1.609-0.8 2.313-1.505 0.705-0.705 1.141-1.375 1.506-2.315 0.276-0.708 0.604-1.774 0.694-3.737 0.096-2.122 0.117-2.759 0.117-8.131 0-5.373-0.021-6.01-0.117-8.132-0.09-1.963-0.418-3.028-0.694-3.737-0.364-0.939-0.801-1.608-1.506-2.312-0.704-0.705-1.373-1.141-2.313-1.506-0.709-0.276-1.775-0.604-3.738-0.693-2.122-0.097-2.759-0.118-8.134-0.118s-6.012 0.021-8.134 0.118c-1.963 0.09-3.028 0.418-3.738 0.693-0.94 0.366-1.611 0.802-2.315 1.506-0.705 0.705-1.141 1.374-1.507 2.314-0.275 0.709-0.603 1.774-0.693 3.737-0.096 2.122-0.116 2.759-0.116 8.135 0 5.375 0.02 6.01 0.116 8.132 0.09 1.962 0.418 3.027 0.693 3.737 0.365 0.939 0.802 1.61 1.507 2.315 0.704 0.704 1.375 1.141 2.315 1.506 0.709 0.277 1.775 0.604 3.738 0.695 1.857 0.084 2.576 0.108 6.328 0.113zm1.806 3.628c-5.467 0-6.153-0.024-8.3-0.121-2.143-0.098-3.606-0.438-4.886-0.936-1.324-0.514-2.447-1.201-3.566-2.321-1.12-1.119-1.808-2.242-2.323-3.565-0.499-1.281-0.839-2.744-0.936-4.886-0.096-2.147-0.121-2.834-0.121-8.301s0.024-6.151 0.122-8.298c0.098-2.143 0.437-3.606 0.935-4.886 0.515-1.324 1.202-2.447 2.322-3.566 1.118-1.12 2.241-1.809 3.564-2.323 1.281-0.498 2.744-0.837 4.887-0.936 2.147-0.097 2.833-0.121 8.299-0.121 5.468 0 6.152 0.024 8.299 0.121 2.143 0.099 3.608 0.438 4.888 0.936 1.324 0.514 2.445 1.203 3.564 2.323 1.12 1.119 1.807 2.242 2.323 3.565 0.495 1.281 0.835 2.744 0.935 4.886 0.097 2.148 0.122 2.832 0.122 8.299s-0.025 6.153-0.122 8.3c-0.1 2.143-0.44 3.606-0.935 4.886-0.516 1.324-1.203 2.447-2.323 3.566-1.12 1.12-2.24 1.808-3.565 2.321-1.283 0.498-2.747 0.838-4.89 0.936-2.147 0.097-2.831 0.121-8.299 0.121z"/>
    </g>
  </g>
</svg>
