<svg version="1.1" viewBox="0 0 13.412 12.81" xmlns="http://www.w3.org/2000/svg">
  <g transform="translate(-539.47 22.765)">
    <g transform="matrix(.35278 0 0 -.35278 539.87 -9.9552)">
      <path d="m0 0h6.935c0.332 0 0.602 0.269 0.602 0.601v23.281c0 0.332-0.27 0.601-0.602 0.601h-6.935c-0.332 0-0.601-0.269-0.601-0.601v-23.281c0-0.332 0.269-0.601 0.601-0.601m36.886 14.041v-13.44c0-0.332-0.269-0.601-0.601-0.601h-6.938c-0.332 0-0.601 0.269-0.601 0.601v12.499c0 3.289-1.175 5.535-4.123 5.535-2.249 0-3.585-1.512-4.175-2.977-0.214-0.523-0.27-1.25-0.27-1.984v-13.072c0-0.332-0.269-0.602-0.601-0.602h-6.935c-0.334 0-0.603 0.269-0.602 0.602 0.016 3.328 0.086 19.477 0.015 23.273-7e-3 0.336 0.264 0.608 0.601 0.608h6.922c0.332 0 0.601-0.269 0.601-0.601v-2.868c-0.016-0.028-0.039-0.054-0.054-0.08h0.054v0.08c1.082 1.664 3.011 4.044 7.336 4.044 5.356 0 9.371-3.499 9.371-11.017"/>
    </g>
    <g transform="matrix(.35278 0 0 -.35278 542.55 -21.228)">
      <path d="m0 0c0-2.406-1.951-4.357-4.357-4.357-2.407 0-4.358 1.951-4.358 4.357 0 2.407 1.951 4.357 4.358 4.357 2.406 0 4.357-1.95 4.357-4.357"/>
    </g>
  </g>
</svg>
