<svg version="1.1" viewBox="0 0 46.268 16.697" xmlns="http://www.w3.org/2000/svg">
  <g transform="translate(-577.16 -21.855)">
    <g transform="matrix(.35278 0 0 -.35278 238.14 44.011)">
      <g clip-path="url(#clipPath800)">
        <g transform="translate(1028.7 44.966)">
          <path d="m0 0c-1.369 0.361-2.85-0.131-3.849-1.106-0.511-0.499-0.902-1.112-1.174-1.771-0.141-0.339-0.251-0.691-0.33-1.05-0.077-0.35-0.145-0.711-0.077-1.069 0.211-1.115 1.393-1.353 2.363-1.262 0.623 0.058 1.223 0.252 1.809 0.463 0.701 0.252 1.383 0.559 2.038 0.914 1.475 0.8 2.808 1.851 3.93 3.098-0.071-0.01-0.143-0.021-0.215-0.031 0.94-2.229 1.453-4.62 1.517-7.038 0.065-2.47-0.317-4.932-0.926-7.32-0.588-2.306-1.364-4.579-2.261-6.782-0.801-1.965-1.797-3.945-3.367-5.413-0.356-0.332-0.722-0.625-1.224-0.675-0.451-0.046-0.914 0.095-1.272 0.372-0.413 0.319-0.641 0.808-0.854 1.272-0.211 0.462-0.388 0.939-0.531 1.427-0.581 1.992-0.569 4.119-0.137 6.14 0.438 2.051 1.296 4.014 2.469 5.75 0.986 1.459 2.172 2.786 3.393 4.05 1.4 1.449 2.882 2.821 4.417 4.126 1.421 1.208 2.891 2.366 4.434 3.415 0.324 0.22 0.651 0.434 0.982 0.641 0.127 0.08-0.07 0.096-0.135 0.055-1.536-0.96-2.987-2.055-4.391-3.197-1.592-1.295-3.124-2.665-4.585-4.106-1.342-1.322-2.64-2.708-3.772-4.216-1.232-1.645-2.188-3.492-2.762-5.467-0.587-2.019-0.776-4.178-0.377-6.251 0.2-1.041 0.543-2.076 1.061-3.003 0.219-0.394 0.498-0.722 0.909-0.926 0.358-0.178 0.77-0.24 1.166-0.187 0.936 0.124 1.627 0.932 2.2 1.615 0.688 0.821 1.249 1.741 1.733 2.695 0.498 0.982 0.915 2.003 1.302 3.033 0.444 1.182 0.862 2.375 1.235 3.582 0.743 2.402 1.308 4.874 1.474 7.389 0.164 2.484-0.092 4.98-0.841 7.359-0.183 0.583-0.395 1.157-0.633 1.72-0.03 0.071-0.182 5e-3 -0.215-0.031-0.926-1.028-1.998-1.923-3.177-2.647-1.134-0.697-2.396-1.289-3.693-1.605-0.845-0.205-2.085-0.27-2.631 0.561-0.355 0.54-0.234 1.201-0.084 1.789 0.168 0.655 0.438 1.288 0.821 1.847 0.894 1.305 2.488 2.159 4.08 1.739 0.062-0.017 0.262 0.079 0.18 0.101"/>
        </g>
        <g transform="translate(962.33 39.773)">
          <path d="m0 0c-0.031-1.156-0.031-2.16 0-3.012 0-0.548 0.015-1.05 0.045-1.506 0.03-0.274 0.046-0.517 0.046-0.73 0.061-0.273 0.107-0.502 0.137-0.684 0 0.03 0.015 0.076 0.046 0.137 0.03 0.122 0.06 0.243 0.091 0.365 0.121 0.365 0.243 0.837 0.365 1.414 0.152 0.792 0.334 1.78 0.548 2.966 0.151 0.883 0.319 1.871 0.502 2.967 0.243 1.764 0.532 3.756 0.866 5.977 0.518 3.833 1.02 7.818 1.506 11.956v0.091c0 0.243 0.122 0.38 0.366 0.411 0.242 0.029 0.379-0.092 0.41-0.366 0.121-1.764 0.274-3.62 0.457-5.567 0.212-2.007 0.456-3.833 0.73-5.475 0.151-1.004 0.319-1.917 0.501-2.738 0.213-1.035 0.426-1.932 0.639-2.693 0.152-0.486 0.304-0.927 0.457-1.323 0.182-0.486 0.38-0.882 0.593-1.186 0.152-0.183 0.289-0.335 0.411-0.457 0.06-0.06 0.121-0.091 0.182-0.091h0.183c0.151 0.062 0.303 0.183 0.456 0.365 0.121 0.153 0.243 0.32 0.365 0.502 0.213 0.335 0.441 0.746 0.684 1.232 0.152 0.365 0.32 0.776 0.502 1.232 0.304 0.76 0.624 1.643 0.959 2.647 0.486 1.521 1.004 3.3 1.551 5.339 0.426 1.672 0.867 3.483 1.324 5.43 0.456 1.946 0.851 3.757 1.186 5.43 0.03 0.061 0.076 0.106 0.137 0.137 0.06 0.121 0.167 0.183 0.319 0.183 0.274 0 0.395-0.137 0.365-0.411-0.122-2.495-0.213-5.172-0.273-8.031-0.062-2.891-0.077-5.567-0.046-8.032 0.03-3.132 0.121-5.795 0.274-7.985 0.06-0.73 0.121-1.399 0.182-2.008 0.091-0.73 0.183-1.384 0.274-1.962 0.061-0.365 0.137-0.699 0.228-1.004 0.061-0.365 0.137-0.685 0.228-0.958 0.061-0.152 0.121-0.304 0.183-0.457 0.091-0.151 0.167-0.288 0.228-0.41 0.121-0.152 0.228-0.258 0.319-0.32 0.061-0.03 0.122-0.06 0.183-0.091h0.228c0.061 0.031 0.098 8e-3 0.114-0.068 0.015-0.076-8e-3 -0.13-0.068-0.16-0.122-0.03-0.228-0.03-0.32 0-0.091 0.03-0.182 0.061-0.273 0.091-0.122 0.091-0.259 0.228-0.411 0.411-0.062 0.122-0.137 0.274-0.228 0.456-0.062 0.153-0.122 0.305-0.183 0.457-0.122 0.273-0.228 0.609-0.319 1.004-0.062 0.304-0.137 0.638-0.228 1.004-0.092 0.578-0.183 1.231-0.274 1.961-0.091 0.609-0.168 1.278-0.228 2.008-0.183 2.221-0.32 4.899-0.411 8.031-0.061 2.465-0.091 5.157-0.091 8.077 0.03 2.251 0.075 4.411 0.137 6.48-0.274-1.278-0.564-2.586-0.867-3.924-0.427-1.978-0.852-3.788-1.278-5.43-0.518-2.07-1.02-3.864-1.506-5.385-0.305-1.004-0.609-1.901-0.913-2.693-0.182-0.456-0.365-0.881-0.547-1.277-0.244-0.517-0.472-0.943-0.685-1.278-0.122-0.243-0.258-0.44-0.41-0.593-0.092-0.121-0.183-0.212-0.274-0.273-0.122-0.092-0.259-0.167-0.411-0.229-0.152-0.06-0.304-0.076-0.456-0.045-0.153 0.03-0.305 0.107-0.456 0.228-0.153 0.122-0.32 0.304-0.502 0.547-0.244 0.336-0.473 0.776-0.685 1.324-0.153 0.365-0.304 0.806-0.456 1.323-0.244 0.792-0.487 1.703-0.73 2.738-0.183 0.821-0.35 1.734-0.502 2.738-0.274 1.672-0.533 3.528-0.776 5.567-0.182 1.521-0.335 2.981-0.456 4.38-0.396-3.772-0.822-7.407-1.278-10.905-0.274-2.252-0.533-4.245-0.776-5.978-0.152-1.096-0.304-2.084-0.456-2.966-0.182-1.187-0.35-2.191-0.502-3.012-0.122-0.608-0.244-1.095-0.365-1.46-0.031-0.152-0.061-0.274-0.091-0.365-0.062-0.183-0.122-0.32-0.183-0.411 0-0.03-0.016-0.061-0.046-0.091-0.03-0.061-0.061-0.107-0.091-0.137s-0.061-0.046-0.091-0.046c-0.061-0.03-0.122-0.046-0.183-0.046s-0.121 0.016-0.182 0.046c-0.031 0.031-0.061 0.061-0.091 0.092-0.031 0.03-0.062 0.076-0.092 0.136v0.046l-0.045 0.046c0 0.061-0.016 0.136-0.046 0.228-0.061 0.213-0.107 0.472-0.137 0.776-0.03 0.213-0.061 0.471-0.091 0.775-0.031 0.427-0.046 0.929-0.046 1.506-0.03 0.852-0.045 1.856-0.045 3.012 0 0 0.027 0.419 0.289 0.419s0.304-0.419 0.304-0.419"/>
        </g>
        <g transform="translate(980.76 30.99)">
          <path d="m0 0c0.073-0.024 0.145-0.048 0.218-0.073l0.044-0.015c0.074-0.024 0.164-0.024 0.267 0 0.017 0.01 0.03 0.026 0.021 0.072-1e-3 5e-3 -3e-3 0.01-4e-3 0.013l-4e-3 -2e-3 -0.076-5e-3h-0.201l-0.199 0.099c-0.107 0.072-0.221 0.185-0.345 0.341l-9e-3 0.013c-0.062 0.125-0.138 0.262-0.225 0.406l-0.188 0.467c-0.094 0.283-0.172 0.609-0.233 0.975-0.09 0.298-0.167 0.639-0.228 1.003-0.091 0.58-0.184 1.241-0.274 1.966-0.061 0.599-0.122 1.275-0.183 2.011-0.152 2.182-0.244 4.87-0.274 7.991-0.031 2.461-0.015 5.164 0.046 8.033 0.06 2.849 0.152 5.551 0.274 8.034 0.012 0.119-5e-3 0.202-0.05 0.254-0.046 0.05-0.126 0.076-0.239 0.076-0.123 0-0.202-0.045-0.25-0.14l-0.012-0.023-0.022-0.012c-0.044-0.022-0.076-0.052-0.098-0.093-0.337-1.679-0.735-3.503-1.185-5.422-0.452-1.93-0.898-3.758-1.324-5.432-0.543-2.021-1.065-3.819-1.553-5.344-0.335-1.004-0.658-1.896-0.96-2.651-0.182-0.457-0.35-0.868-0.502-1.233-0.246-0.492-0.478-0.908-0.69-1.244-0.121-0.18-0.245-0.351-0.37-0.508-0.162-0.193-0.325-0.324-0.488-0.39l-0.029-5e-3h-0.183c-0.081 0-0.161 0.038-0.237 0.114-0.124 0.124-0.264 0.28-0.415 0.461-0.219 0.313-0.422 0.718-0.606 1.209-0.151 0.39-0.305 0.837-0.458 1.327-0.215 0.767-0.43 1.675-0.641 2.7-0.182 0.821-0.352 1.745-0.502 2.742-0.274 1.643-0.52 3.487-0.731 5.479-0.184 1.959-0.337 3.832-0.457 5.571-0.013 0.119-0.05 0.204-0.108 0.251-0.051 0.04-0.121 0.053-0.216 0.042-0.205-0.026-0.297-0.129-0.297-0.334v-0.091c-0.485-4.124-0.992-8.147-1.507-11.966-0.331-2.199-0.623-4.21-0.867-5.978-0.183-1.097-0.35-2.086-0.502-2.969-0.211-1.176-0.396-2.174-0.548-2.967-0.122-0.579-0.245-1.057-0.368-1.424-0.029-0.116-0.059-0.238-0.089-0.36l-6e-3 -0.016c-0.036-0.07-0.038-0.098-0.038-0.102l-0.153-0.013c-0.03 0.179-0.076 0.408-0.136 0.681l-2e-3 0.016c0 0.208-0.015 0.444-0.045 0.722-0.031 0.456-0.046 0.965-0.046 1.514-0.031 0.846-0.031 1.859 0 3.008-6e-3 0.04-0.052 0.346-0.226 0.346-0.184 0-0.213-0.344-0.213-0.347 0-1.15 0.015-2.162 0.046-3.004 0-0.58 0.015-1.085 0.045-1.503 0.029-0.295 0.06-0.555 0.091-0.771 0.03-0.3 0.075-0.557 0.135-0.765 0.027-0.083 0.043-0.155 0.047-0.216l0.047-0.047v-0.059c0.023-0.044 0.046-0.079 0.068-0.101l0.082-0.082c0.098-0.045 0.185-0.044 0.286 6e-3l0.016 8e-3h0.018c6e-3 0 0.02 6e-3 0.038 0.023 0.023 0.024 0.05 0.065 0.076 0.117l0.013 0.019c0.018 0.018 0.024 0.031 0.024 0.037v0.023l0.013 0.02c0.056 0.084 0.115 0.217 0.174 0.392 0.029 0.089 0.059 0.209 0.088 0.356 0.123 0.371 0.245 0.859 0.365 1.46 0.153 0.826 0.322 1.838 0.502 3.009 0.15 0.872 0.303 1.869 0.456 2.965 0.244 1.739 0.505 3.75 0.776 5.976 0.453 3.474 0.882 7.142 1.277 10.905l0.154-2e-3c0.119-1.377 0.272-2.849 0.456-4.377 0.241-2.025 0.502-3.897 0.775-5.564 0.151-0.997 0.32-1.916 0.501-2.734 0.242-1.028 0.487-1.948 0.729-2.732 0.151-0.515 0.304-0.958 0.454-1.317 0.209-0.539 0.436-0.979 0.675-1.307 0.178-0.237 0.342-0.416 0.488-0.533 0.142-0.113 0.284-0.185 0.423-0.212 0.138-0.028 0.273-0.014 0.413 0.041 0.146 0.059 0.278 0.132 0.393 0.218 0.087 0.059 0.173 0.145 0.258 0.259 0.153 0.154 0.286 0.347 0.404 0.581 0.214 0.339 0.442 0.766 0.683 1.276 0.182 0.394 0.365 0.822 0.546 1.274 0.303 0.789 0.609 1.693 0.91 2.686 0.485 1.514 0.991 3.324 1.505 5.38 0.423 1.632 0.853 3.458 1.277 5.428 0.309 1.359 0.6 2.679 0.867 3.924l0.153-0.018c-0.061-2.058-0.107-4.237-0.137-6.479 0-2.921 0.031-5.638 0.091-8.073 0.091-3.118 0.229-5.819 0.411-8.027 0.059-0.72 0.136-1.394 0.227-2.003 0.091-0.725 0.183-1.384 0.274-1.962 0.088-0.348 0.165-0.687 0.228-1 0.089-0.388 0.195-0.721 0.314-0.988l0.183-0.459 0.222-0.442c0.141-0.169 0.269-0.298 0.382-0.384m0.386-0.26c-0.062 0-0.119 9e-3 -0.173 0.026l-0.045 0.015c-0.076 0.026-0.152 0.051-0.228 0.076l-0.023 0.012c-0.125 0.094-0.268 0.236-0.423 0.423l-0.01 0.014-0.228 0.457-0.185 0.462c-0.122 0.273-0.231 0.615-0.323 1.015-0.063 0.313-0.14 0.65-0.228 1.003-0.093 0.585-0.185 1.246-0.276 1.971-0.091 0.61-0.168 1.287-0.228 2.011-0.182 2.212-0.32 4.915-0.411 8.035-0.061 2.437-0.091 5.155-0.091 8.079 0.026 1.942 0.064 3.837 0.113 5.647-0.218-1.001-0.449-2.043-0.691-3.108-0.425-1.971-0.855-3.799-1.278-5.433-0.515-2.059-1.022-3.872-1.507-5.388-0.302-0.995-0.609-1.903-0.914-2.697-0.182-0.454-0.367-0.885-0.55-1.282-0.244-0.517-0.475-0.95-0.689-1.287-0.121-0.242-0.264-0.448-0.421-0.606-0.09-0.12-0.188-0.218-0.286-0.284-0.122-0.091-0.266-0.171-0.425-0.235-0.166-0.066-0.334-0.083-0.5-0.05-0.163 0.033-0.328 0.115-0.49 0.243-0.158 0.127-0.326 0.311-0.515 0.562-0.247 0.34-0.481 0.791-0.695 1.342-0.151 0.362-0.305 0.81-0.458 1.329-0.243 0.787-0.489 1.71-0.731 2.742-0.183 0.823-0.352 1.746-0.503 2.744-0.274 1.669-0.535 3.544-0.776 5.57-0.15 1.243-0.279 2.449-0.386 3.597-0.372-3.489-0.774-6.891-1.195-10.123-0.271-2.227-0.532-4.239-0.776-5.979-0.153-1.097-0.307-2.095-0.457-2.968-0.18-1.171-0.349-2.185-0.502-3.013-0.122-0.608-0.245-1.102-0.368-1.471-0.028-0.144-0.06-0.27-0.091-0.364-0.061-0.181-0.12-0.316-0.18-0.412-6e-3 -0.039-0.025-0.076-0.057-0.111-0.033-0.062-0.066-0.111-0.1-0.146-0.042-0.04-0.084-0.062-0.127-0.068-0.141-0.064-0.281-0.061-0.419 7e-3l-0.02 0.015-0.092 0.091c-0.036 0.037-0.072 0.089-0.106 0.157l-8e-3 0.016v0.032l-0.045 0.046v0.032c0 0.051-0.014 0.118-0.042 0.204-0.063 0.22-0.11 0.485-0.14 0.792-0.031 0.214-0.062 0.476-0.092 0.776-0.03 0.424-0.046 0.933-0.046 1.513-0.03 0.841-0.045 1.855-0.045 3.012 0.012 0.188 0.103 0.497 0.367 0.497 0.327 0 0.378-0.469 0.38-0.489v-0.01c-0.03-1.149-0.03-2.16 0-3.007 0-0.549 0.016-1.054 0.046-1.503 0.03-0.278 0.045-0.517 0.046-0.728 0.028-0.127 0.053-0.247 0.075-0.355 0.015 0.062 0.031 0.123 0.046 0.184 0.122 0.367 0.244 0.84 0.365 1.411 0.151 0.791 0.336 1.789 0.547 2.964 0.151 0.882 0.319 1.87 0.502 2.965 0.243 1.767 0.535 3.778 0.867 5.977 0.514 3.816 1.021 7.838 1.505 11.953l-1e-3 0.082c0 0.283 0.15 0.452 0.433 0.487 0.136 0.017 0.247-8e-3 0.331-0.074 0.092-0.073 0.148-0.194 0.166-0.359 0.12-1.739 0.273-3.612 0.457-5.568 0.21-1.988 0.455-3.829 0.729-5.471 0.151-0.995 0.319-1.914 0.501-2.733 0.21-1.024 0.425-1.928 0.638-2.689 0.152-0.485 0.304-0.929 0.454-1.316 0.18-0.48 0.377-0.873 0.584-1.17 0.145-0.173 0.281-0.325 0.402-0.446 0.046-0.046 0.089-0.069 0.128-0.069h0.167c0.135 0.059 0.274 0.172 0.413 0.338 0.122 0.153 0.243 0.32 0.36 0.495 0.209 0.33 0.438 0.742 0.68 1.224 0.149 0.36 0.316 0.77 0.499 1.226 0.301 0.753 0.623 1.642 0.957 2.643 0.486 1.521 1.008 3.316 1.55 5.334 0.425 1.673 0.871 3.499 1.323 5.428 0.45 1.921 0.849 3.747 1.185 5.428l7e-3 0.019c0.033 0.068 0.084 0.121 0.149 0.159 0.076 0.133 0.205 0.203 0.376 0.203 0.159 0 0.278-0.043 0.354-0.127 0.076-0.085 0.106-0.21 0.088-0.369-0.121-2.477-0.213-5.178-0.273-8.025-0.061-2.868-0.076-5.569-0.046-8.028 0.03-3.118 0.122-5.804 0.274-7.981 0.061-0.735 0.122-1.409 0.182-2.006 0.09-0.721 0.182-1.381 0.273-1.958 0.06-0.357 0.136-0.692 0.226-0.993 0.062-0.368 0.138-0.686 0.228-0.956l0.181-0.453c0.082-0.134 0.158-0.271 0.221-0.397 0.113-0.141 0.213-0.241 0.298-0.297l0.158-0.078h0.193c0.054 0.021 0.094 0.012 0.12 0 0.044-0.021 0.073-0.065 0.086-0.13 0.022-0.11-0.018-0.199-0.109-0.245l-0.017-6e-3c-0.066-0.016-0.13-0.024-0.189-0.024"/>
        </g>
        <g transform="translate(986.71 42.738)">
          <path d="m0 0v0.163c0 0.215-0.069 0.419-0.203 0.609-0.136 0.189-0.325 0.352-0.569 0.488-0.244 0.135-0.501 0.203-0.772 0.203-0.272 0-0.516-0.055-0.731-0.163-0.11-0.054-0.217-0.135-0.326-0.243-0.054-0.055-0.109-0.11-0.162-0.163-0.055 0-0.109-0.055-0.163-0.163-0.217-0.216-0.379-0.487-0.487-0.812-0.325-0.597-0.488-1.219-0.488-1.869 0-0.325 0.054-0.624 0.163-0.894 0.053-0.272 0.189-0.434 0.406-0.488 0.053-0.054 0.149-0.068 0.285-0.041 0.134 0.027 0.284 0.095 0.446 0.204 0.216 0.108 0.46 0.297 0.732 0.569 0.433 0.433 0.839 1.001 1.219 1.706 0.053 0.054 0.122 0.135 0.203 0.244 0.081 0.108 0.149 0.216 0.203 0.325 0.054 0.108 0.135 0.216 0.244 0.325m8.127 1.3c0.108 0.108 0.203 0.108 0.284 0 0.081-0.109 0.067-0.217-0.04-0.324-1.193-1.085-2.006-1.816-2.438-2.195-0.543-0.434-1.004-0.813-1.382-1.137-0.217-0.163-0.434-0.326-0.65-0.488-0.272-0.163-0.542-0.299-0.813-0.406-0.162-0.055-0.298-0.11-0.406-0.163-0.217-0.054-0.407-0.081-0.569-0.081-0.217 0-0.406 0.027-0.569 0.081-0.217 0.053-0.38 0.163-0.488 0.325-0.162 0.108-0.298 0.244-0.406 0.406-0.055 0.108-0.109 0.271-0.162 0.488-0.11 0.271-0.191 0.569-0.244 0.894-0.055 0.216-0.081 0.433-0.081 0.65-0.217-0.325-0.326-0.516-0.326-0.569-0.434-0.704-0.84-1.3-1.219-1.788-0.325-0.325-0.623-0.597-0.893-0.812-0.163-0.109-0.353-0.191-0.569-0.244-0.272-0.055-0.516-0.055-0.732 0-0.109 0-0.217 0.053-0.325 0.163-0.109 0.053-0.216 0.134-0.325 0.243-0.108 0.108-0.216 0.297-0.325 0.569-0.162 0.325-0.244 0.704-0.244 1.138 0 0.812 0.136 1.597 0.407 2.356 0.162 0.325 0.351 0.651 0.568 0.976 0.109 0.108 0.19 0.189 0.244 0.243 0.054 0.108 0.135 0.19 0.244 0.244 0.163 0.163 0.325 0.298 0.488 0.406 0.378 0.217 0.813 0.352 1.3 0.407 0.433 0 0.866-0.109 1.3-0.325 0.108-0.055 0.216-0.109 0.325-0.163 0.054 0.433 0.297 0.65 0.732 0.65 0.433-0.054 0.65-0.298 0.65-0.731v-0.081c-0.055-0.597-0.109-1.138-0.163-1.626v-1.544c0.054-0.271 0.108-0.515 0.163-0.731 0.053-0.109 0.081-0.217 0.081-0.325 0.053-0.055 0.108-0.109 0.163-0.162 0.107-0.11 0.243-0.191 0.406-0.244 0.162 0 0.378 0.053 0.65 0.162 0.378 0.163 0.839 0.406 1.382 0.731 0.378 0.271 0.839 0.596 1.381 0.976 0.433 0.378 1.3 1.056 2.601 2.031"/>
        </g>
        <g transform="translate(1006.8 43.875)">
          <path d="m0 0c0.053-0.055 0.053-0.109 0-0.162-0.65-0.597-1.247-1.138-1.788-1.626-0.705-0.596-1.381-1.056-2.032-1.381-0.434-0.217-0.812-0.353-1.137-0.407-0.488-0.109-0.949-0.109-1.382 0-0.217 0.109-0.406 0.244-0.569 0.407-0.162 0.163-0.325 0.325-0.487 0.487-0.163 0.326-0.325 0.732-0.488 1.22-0.109 0.27-0.217 0.65-0.325 1.137-0.109 0.27-0.162 0.46-0.162 0.569 0 0.108-0.028 0.189-0.082 0.244-0.109-0.055-0.217-0.136-0.325-0.244-0.162-0.272-0.353-0.569-0.568-0.894-0.326-0.597-0.651-1.3-0.976-2.113-0.109-0.38-0.217-0.759-0.325-1.137-0.162-0.38-0.272-0.732-0.325-1.057-0.163-0.487-0.461-0.65-0.894-0.487-0.109 0-0.19 0.027-0.244 0.081-0.054 0-0.081 0.026-0.081 0.081l-0.081 0.081c0 0.054-0.027 0.108-0.081 0.163v0.081c-0.054 0.108-0.108 0.216-0.163 0.325-0.053 0.216-0.081 0.46-0.081 0.732-0.054 0.378-0.108 0.839-0.163 1.381v2.682c0.055 0.487 0.313 0.717 0.772 0.691 0.46-0.028 0.663-0.258 0.61-0.691v-0.081c-0.055-0.435-0.109-0.868-0.163-1.301-0.109-0.488-0.162-0.922-0.162-1.3-0.055-0.217-0.081-0.434-0.081-0.65 0.162 0.325 0.297 0.595 0.406 0.813 0.378 0.866 0.758 1.597 1.137 2.194 0.271 0.433 0.515 0.785 0.732 1.056 0.216 0.216 0.406 0.378 0.569 0.488 0.053 0 0.108 0.027 0.162 0.081h0.081c0.054 0 0.109 0.027 0.163 0.081h0.325c0.053 0 0.135-0.028 0.244-0.081 0.053-0.109 0.122-0.203 0.203-0.284 0.081-0.082 0.149-0.203 0.203-0.366 0-0.109 0.027-0.217 0.081-0.325 0-0.11 0.027-0.299 0.082-0.569 0.108-0.542 0.189-0.922 0.244-1.138 0.108-0.434 0.243-0.786 0.406-1.056 0.162-0.325 0.392-0.557 0.691-0.691 0.297-0.136 0.636-0.177 1.015-0.122 0.271 0.053 0.623 0.189 1.057 0.406 0.596 0.271 1.246 0.677 1.95 1.22 0.596 0.378 1.219 0.865 1.869 1.462 0.054 0.054 0.108 0.054 0.163 0" />
        </g>
        <g transform="translate(1016.8 44.119)">
          <path d="m0 0c0.081-0.055 0.094-0.136 0.041-0.244-0.65-1.084-1.301-2.086-1.951-3.006-0.434-0.543-0.84-1.004-1.219-1.382-0.271-0.217-0.515-0.407-0.731-0.569-0.055-0.055-0.136-0.109-0.244-0.163-0.054 0-0.136-0.028-0.244-0.081l-0.243-0.081c-0.055 0-0.11-0.028-0.163-0.081h-0.163c-0.217 0-0.42 0.04-0.609 0.121-0.191 0.082-0.339 0.204-0.447 0.366-0.217 0.216-0.406 0.515-0.569 0.894-0.109 0.27-0.19 0.596-0.244 0.976-0.054 0.27-0.109 0.568-0.162 0.893v2.032c-0.109-0.38-0.191-0.732-0.244-1.057-0.162-0.542-0.325-1.003-0.488-1.381-0.217-0.597-0.406-1.057-0.568-1.382-0.218-0.272-0.407-0.487-0.569-0.65-0.163-0.163-0.325-0.244-0.488-0.244h-0.325c-0.109 0-0.217 0.027-0.325 0.081-0.163 0.109-0.298 0.245-0.406 0.407-0.109 0.108-0.191 0.244-0.244 0.406-0.108 0.216-0.189 0.46-0.244 0.731-0.108 0.434-0.189 0.948-0.244 1.545-0.053 0.487-0.081 0.975-0.081 1.463 0 0.487 0.231 0.717 0.691 0.69 0.459-0.028 0.691-0.258 0.691-0.69v-0.082c-0.055-0.434-0.11-0.894-0.163-1.381 0-0.488 0.027-0.922 0.081-1.3 0.053-0.272 0.108-0.488 0.163-0.651 0-0.109 0.053-0.217 0.162-0.325 0.054-0.054 0.135-0.054 0.244 0 0.108 0.054 0.244 0.189 0.406 0.407 0.216 0.27 0.433 0.676 0.651 1.218 0.216 0.379 0.406 0.813 0.568 1.301 0.271 0.758 0.541 1.544 0.813 2.357v0.162c0.054 0.433 0.284 0.622 0.691 0.569 0.406-0.055 0.609-0.272 0.609-0.65l-0.081-0.081c0-0.218-0.028-0.488-0.081-0.813-0.055-0.325-0.081-0.624-0.081-0.894-0.055-0.65-0.082-1.219-0.082-1.707 0-0.704 0.054-1.273 0.163-1.706 0.108-0.272 0.23-0.475 0.365-0.61 0.135-0.136 0.285-0.203 0.447-0.203 0.163 0 0.379 0.082 0.651 0.244 0.215 0.108 0.433 0.27 0.65 0.488 0.378 0.325 0.784 0.731 1.219 1.219 0.758 0.812 1.489 1.733 2.194 2.762 0.053 0.108 0.122 0.135 0.203 0.082" />
        </g>
        <g transform="translate(1033.7 31.604)">
          <path d="m0 0c0.108 1.897 0.108 3.685 0 5.364 0 0.704-0.028 1.354-0.081 1.95-0.434-0.433-0.867-0.92-1.301-1.463-1.084-1.353-2.112-2.844-3.087-4.47-0.922-1.57-1.707-3.169-2.357-4.794-0.76-1.841-1.274-3.548-1.544-5.12-0.217-0.975-0.325-1.841-0.325-2.6 0-0.488 0.053-0.921 0.162-1.301 0.053-0.433 0.163-0.839 0.325-1.218 0.163-0.379 0.379-0.704 0.65-0.976 0.271-0.27 0.622-0.459 1.057-0.569 0.162-0.053 0.352-0.094 0.569-0.121 0.215-0.027 0.406-0.014 0.568 0.04 0.379 0.055 0.732 0.191 1.057 0.406 0.325 0.217 0.622 0.516 0.894 0.894 0.27 0.272 0.514 0.624 0.731 1.057 0.379 0.65 0.704 1.463 0.975 2.438 0.488 1.462 0.895 3.197 1.219 5.201 0.216 1.68 0.379 3.441 0.488 5.282m6.907 12.515c0.108 0 0.19-0.069 0.245-0.203 0.053-0.136 0-0.203-0.163-0.203-0.813-0.217-1.625-0.543-2.438-0.976-0.759-0.379-1.491-0.867-2.194-1.462-0.542-0.435-1.057-0.894-1.544-1.382v-0.163c0.108-0.812 0.189-1.706 0.243-2.681 0.054-1.733 0.027-3.548-0.081-5.445-0.109-1.896-0.298-3.71-0.569-5.445-0.324-2.058-0.759-3.846-1.3-5.363-0.325-0.976-0.678-1.815-1.056-2.52-0.272-0.433-0.542-0.839-0.813-1.218-0.325-0.379-0.678-0.704-1.057-0.976-0.487-0.325-0.974-0.514-1.462-0.568-0.217-0.054-0.461-0.054-0.732 0s-0.515 0.109-0.731 0.162c-0.542 0.162-0.975 0.406-1.3 0.731-0.38 0.38-0.678 0.813-0.894 1.301-0.163 0.379-0.272 0.84-0.325 1.381-0.108 0.434-0.163 0.894-0.163 1.382 0.055 0.812 0.163 1.734 0.325 2.763 0.325 1.625 0.894 3.359 1.707 5.201 0.703 1.625 1.516 3.251 2.438 4.876 0.975 1.625 2.031 3.116 3.169 4.469 0.488 0.651 1.029 1.246 1.626 1.788l-0.082 0.081c-0.054 0.434-0.109 0.866-0.162 1.301-0.109 0.487-0.217 0.893-0.325 1.218-0.109 0.217-0.191 0.407-0.244 0.569-0.055 0.054-0.095 0.109-0.122 0.163-0.028 0.053-0.069 0.081-0.122 0.081h-0.244c-0.109-0.054-0.244-0.135-0.406-0.244-0.272-0.162-0.597-0.434-0.975-0.812-0.217-0.217-0.542-0.516-0.976-0.894-0.054-0.055-0.135-0.15-0.243-0.284-0.109-0.137-0.191-0.218-0.244-0.244-0.055-0.028-0.136-0.095-0.244-0.204l-0.487-0.487c-0.11-0.109-0.191-0.203-0.244-0.285-0.055-0.081-0.136-0.162-0.244-0.243-0.109-0.081-0.191-0.15-0.244-0.203-0.434-0.38-0.812-0.677-1.137-0.894-0.272-0.108-0.516-0.216-0.732-0.326-0.272-0.162-0.542-0.243-0.813-0.243-0.162-0.054-0.325-0.054-0.487 0-0.163 0-0.325 0.054-0.488 0.162-0.162 0.109-0.325 0.244-0.487 0.407-0.054 0.109-0.135 0.244-0.244 0.406-0.053 0.27-0.108 0.569-0.163 0.894v0.731c0.055 0.488 0.163 0.975 0.325 1.463 0.11 0.487 0.272 0.947 0.488 1.381 0.216 0.488 0.487 0.895 0.813 1.219 0.053 0.109 0.134 0.217 0.243 0.325l0.163 0.163 0.081 0.082h0.082c0.162 0.162 0.351 0.324 0.568 0.487 0.541 0.325 1.083 0.514 1.626 0.569 0.325 0 0.622-0.055 0.894-0.162 0.162-0.055 0.297-0.11 0.406-0.163 0.108-0.055 0.175-0.096 0.203-0.122 0.027-0.028 0.067-0.041 0.122-0.041l0.081-0.081v-0.081c0.325-0.325 0.338-0.638 0.041-0.935-0.298-0.298-0.609-0.312-0.935-0.041v0.082h-0.081l-0.081 0.081c-0.055 0-0.109 0.027-0.163 0.081h-0.406c-0.325 0-0.65-0.109-0.975-0.325-0.163-0.109-0.325-0.217-0.488-0.325l-0.162-0.162c-0.11-0.109-0.191-0.191-0.244-0.244-0.217-0.272-0.435-0.597-0.65-0.975-0.163-0.38-0.299-0.76-0.407-1.138-0.162-0.434-0.271-0.841-0.325-1.219v-0.569c0.054-0.217 0.081-0.38 0.081-0.487 0.054-0.11 0.108-0.191 0.163-0.244 0.053 0 0.094-0.014 0.122-0.041 0.027-0.028 0.094-0.014 0.203 0.041 0.108 0 0.244 0.026 0.407 0.081 0.162 0.108 0.351 0.216 0.568 0.325 0.326 0.163 0.651 0.406 0.976 0.732 0.433 0.324 1.083 0.92 1.95 1.787 0.433 0.433 0.758 0.759 0.975 0.975 0.433 0.433 0.813 0.732 1.138 0.894 0.27 0.163 0.514 0.298 0.731 0.407 0.163 0.053 0.325 0.081 0.488 0.081h0.162c0.054 0 0.108-0.028 0.163-0.081 0.108 0 0.216-0.028 0.325-0.081 0.108-0.11 0.244-0.244 0.406-0.407 0.054-0.054 0.135-0.162 0.244-0.325 0.108-0.217 0.189-0.461 0.244-0.731 0.162-0.38 0.297-0.841 0.406-1.382 0-0.162 0.027-0.38 0.082-0.65 0.433 0.433 0.865 0.813 1.299 1.138 0.759 0.595 1.517 1.109 2.276 1.544 0.866 0.433 1.734 0.758 2.6 0.975"/>
        </g>
        <g transform="translate(1040 46.801)">
          <path d="m0 0c-0.053 0.163-0.082 0.271-0.082 0.325v0.487c0 0.434 0.232 0.651 0.691 0.651 0.46 0 0.691-0.217 0.691-0.651 0-0.054-0.014-0.121-0.04-0.203-0.028-0.081-0.041-0.176-0.041-0.284 0-0.054-0.028-0.162-0.081-0.325v-0.65c-0.055-0.325-0.244-0.488-0.569-0.488-0.272 0-0.433 0.135-0.488 0.407l-0.081 0.406zm8.817-2.804c0.081-0.081 0.094-0.15 0.041-0.203-0.922-0.867-1.843-1.706-2.763-2.519-0.542-0.434-1.03-0.813-1.463-1.138-0.597-0.434-1.111-0.786-1.544-1.056-0.325-0.163-0.623-0.299-0.894-0.406-0.163-0.055-0.325-0.11-0.488-0.163-0.054 0-0.135-0.027-0.243-0.081h-0.325c-0.11 0-0.217 0.054-0.326 0.162-0.109 0.053-0.217 0.135-0.324 0.244-0.11 0.108-0.191 0.27-0.244 0.487-0.108 0.216-0.19 0.541-0.244 0.976-0.108 0.487-0.189 1.109-0.244 1.869v1.95c0.055 0.433 0.298 0.637 0.732 0.61 0.433-0.028 0.65-0.258 0.65-0.691v-0.081c-0.055-0.272-0.11-0.569-0.163-0.894 0-0.325-0.028-0.624-0.081-0.894-0.055-0.705-0.055-1.3 0-1.788 0-0.325 0.027-0.597 0.081-0.813 0.053-0.109 0.108-0.217 0.163-0.325 0-0.054 0.026-0.081 0.081-0.081h0.406c0.108 0 0.216 0.027 0.325 0.081 0.271 0.108 0.541 0.244 0.813 0.407 0.487 0.215 1.002 0.514 1.544 0.894 0.487 0.325 0.975 0.676 1.463 1.056 0.975 0.758 1.922 1.571 2.844 2.438 0.053 0.054 0.122 0.041 0.203-0.041" />
        </g>
        <g transform="translate(1059.4 43.957)">
          <path d="m0 0c0.053 0 0.094-0.028 0.122-0.082 0.027-0.054 0.013-0.108-0.041-0.162-0.65-0.38-1.219-0.705-1.706-0.975-0.38-0.162-0.705-0.299-0.976-0.406-0.379-0.11-0.731-0.191-1.056-0.244-0.38 0-0.731 0.027-1.056 0.081-0.38 0.108-0.732 0.297-1.057 0.569-0.054 0.053-0.461 0.595-1.219 1.625-0.109 0.108-0.203 0.19-0.284 0.244-0.081 0.053-0.15 0.081-0.203 0.081h-0.122c-0.028 0-0.069-0.028-0.122-0.081-0.11-0.054-0.191-0.136-0.244-0.244-0.162-0.217-0.325-0.488-0.488-0.812-0.162-0.218-0.298-0.488-0.406-0.813-0.272-0.542-0.516-1.166-0.731-1.869-0.163-0.65-0.325-1.274-0.488-1.87-0.109-0.487-0.38-0.676-0.813-0.568l-0.081 0.081h-0.163c-0.054 0.053-0.107 0.108-0.162 0.163-0.108 0.162-0.162 0.351-0.162 0.569v0.081c0 0.215-0.027 0.433-0.082 0.65-0.053 0.378-0.081 0.813-0.081 1.3 0 0.379-0.027 0.813-0.081 1.301v1.299c0 0.488 0.231 0.732 0.691 0.732 0.459 0 0.69-0.244 0.69-0.732v-0.081c-0.054-0.379-0.122-0.8-0.203-1.259-0.081-0.461-0.122-0.881-0.122-1.26 0.271 0.703 0.541 1.327 0.813 1.869 0.162 0.325 0.325 0.623 0.487 0.894 0.216 0.378 0.433 0.677 0.65 0.894 0.163 0.163 0.326 0.297 0.488 0.406 0.108 0.054 0.216 0.108 0.325 0.163 0.163 0.053 0.311 0.067 0.447 0.04 0.135-0.027 0.257-0.068 0.366-0.121 0.108-0.055 0.216-0.109 0.325-0.163 0.108-0.109 0.216-0.272 0.325-0.488 0.108-0.109 0.216-0.257 0.325-0.446 0.108-0.191 0.189-0.339 0.244-0.448 0.163-0.271 0.352-0.515 0.569-0.731 0.216-0.162 0.459-0.298 0.731-0.406 0.27-0.109 0.569-0.162 0.894-0.162 0.271 0.053 0.569 0.107 0.894 0.162 0.325 0.108 0.65 0.216 0.975 0.325 0.541 0.216 1.138 0.514 1.788 0.894"/>
        </g>
        <g transform="translate(1063 42.738)">
          <path d="m0 0v0.163c0 0.215-0.069 0.419-0.203 0.609-0.136 0.189-0.325 0.352-0.569 0.488-0.244 0.135-0.502 0.203-0.772 0.203-0.272 0-0.516-0.055-0.732-0.163-0.109-0.054-0.217-0.135-0.325-0.243-0.054-0.055-0.109-0.11-0.162-0.163-0.055 0-0.11-0.055-0.163-0.163-0.217-0.216-0.379-0.487-0.487-0.812-0.325-0.597-0.488-1.219-0.488-1.869 0-0.325 0.053-0.624 0.163-0.894 0.053-0.272 0.189-0.434 0.406-0.488 0.053-0.054 0.148-0.068 0.284-0.041 0.135 0.027 0.285 0.095 0.447 0.204 0.216 0.108 0.46 0.297 0.732 0.569 0.433 0.433 0.839 1.001 1.219 1.706 0.053 0.054 0.122 0.135 0.203 0.244 0.081 0.108 0.148 0.216 0.203 0.325 0.053 0.108 0.135 0.216 0.244 0.325m5.932-1.219c-0.542-0.434-1.003-0.813-1.381-1.137-0.218-0.163-0.435-0.326-0.65-0.488-0.272-0.163-0.543-0.299-0.813-0.406-0.162-0.055-0.298-0.11-0.406-0.163-0.217-0.054-0.407-0.081-0.569-0.081-0.217 0-0.407 0.027-0.569 0.081-0.217 0.053-0.38 0.163-0.488 0.325-0.162 0.108-0.298 0.244-0.406 0.406-0.055 0.108-0.109 0.271-0.162 0.488-0.11 0.271-0.191 0.569-0.244 0.894-0.055 0.216-0.082 0.433-0.082 0.65-0.217-0.325-0.325-0.516-0.325-0.569-0.434-0.704-0.84-1.3-1.219-1.788-0.325-0.325-0.623-0.597-0.894-0.812-0.162-0.109-0.353-0.191-0.568-0.244-0.272-0.055-0.516-0.055-0.732 0-0.109 0-0.217 0.053-0.325 0.163-0.109 0.053-0.216 0.134-0.325 0.243-0.108 0.108-0.216 0.297-0.325 0.569-0.163 0.325-0.244 0.704-0.244 1.138 0 0.812 0.136 1.597 0.407 2.356 0.162 0.325 0.351 0.651 0.568 0.976 0.108 0.108 0.19 0.189 0.244 0.243 0.053 0.108 0.135 0.19 0.244 0.244 0.163 0.163 0.325 0.298 0.488 0.406 0.378 0.217 0.812 0.352 1.3 0.407 0.433 0 0.866-0.109 1.3-0.325 0.108-0.055 0.216-0.109 0.325-0.163 0.054 0.433 0.297 0.65 0.731 0.65 0.433-0.054 0.651-0.298 0.651-0.731v-0.081c-0.055-0.597-0.11-1.138-0.163-1.626v-1.544c0.053-0.271 0.108-0.515 0.163-0.731 0.053-0.109 0.081-0.217 0.081-0.325 0.053-0.055 0.108-0.109 0.162-0.162 0.108-0.11 0.244-0.191 0.407-0.244 0.162 0 0.378 0.053 0.65 0.162 0.378 0.163 0.839 0.406 1.381 0.731 0.379 0.271 0.84 0.596 1.382 0.976"/>
        </g>
        <g transform="translate(1077.1 42.187)">
          <path d="m0 0c0.27 0.65 0.569 1.408 0.894 2.275-0.217-0.054-0.407-0.027-0.569 0.081-0.055 0-0.122 0.014-0.203 0.041s-0.163 0.013-0.244-0.041-0.177-0.108-0.284-0.162c-0.11-0.109-0.191-0.19-0.244-0.244-0.217-0.217-0.394-0.447-0.529-0.69-0.135-0.244-0.257-0.502-0.365-0.772-0.163-0.543-0.272-1.138-0.325-1.788 0-0.325 0.026-0.597 0.081-0.813 0.053-0.162 0.108-0.298 0.163-0.407v-0.081c0.107 0.054 0.189 0.108 0.243 0.163 0.163 0.163 0.325 0.406 0.488 0.731 0.27 0.379 0.569 0.948 0.894 1.707m4.469 4.713c0 1.463 0.054 3.82 0.163 7.071v2.681c-0.163-1.084-0.353-2.194-0.569-3.332-0.272-1.409-0.542-2.709-0.813-3.901-0.379-1.409-0.731-2.709-1.056-3.9-0.434-1.518-0.841-2.763-1.219-3.738-0.325-0.813-0.623-1.437-0.894-1.869-0.217-0.38-0.434-0.679-0.65-0.894-0.217-0.216-0.406-0.352-0.569-0.407-0.163-0.108-0.325-0.162-0.487-0.162-0.163 0-0.326 0.054-0.488 0.162-0.163 0.055-0.299 0.163-0.406 0.326-0.054 0.054-0.108 0.134-0.163 0.243-0.108 0.216-0.189 0.433-0.244 0.651-0.053 0.324-0.081 0.676-0.081 1.056 0 0.758 0.109 1.489 0.325 2.194 0.109 0.378 0.244 0.704 0.406 0.975 0.108 0.216 0.216 0.379 0.325 0.487 0.054 0.109 0.108 0.19 0.163 0.245 0.108 0.107 0.163 0.189 0.163 0.243 0.162 0.108 0.324 0.244 0.487 0.406 0.163 0.163 0.352 0.271 0.569 0.326 0.216 0.108 0.46 0.162 0.731 0.162s0.515-0.054 0.732-0.162c0.162-0.055 0.27-0.137 0.325-0.244 0.053 0.107 0.081 0.216 0.081 0.325 0.378 1.137 0.731 2.384 1.056 3.738 0.326 1.246 0.651 2.546 0.976 3.901 0.541 2.383 1.001 4.74 1.381 7.07v0.488c0 0.487 0.216 0.731 0.651 0.731 0.432 0 0.676-0.217 0.731-0.65v-0.081c-0.055-0.813-0.109-2.005-0.163-3.576l-0.244-3.494c-0.217-3.305-0.353-5.689-0.406-7.152-0.162-2.818-0.182-1.955-0.182-3.851 0-1.408 0.027-2.573 0.082-3.494 0.053-0.704 0.134-1.301 0.243-1.788 0.054-0.326 0.108-0.596 0.163-0.813 0.053-0.163 0.108-0.297 0.162-0.406l0.244-0.244c0.108 0 0.149-0.041 0.122-0.122-0.028-0.081-0.081-0.122-0.162-0.122-0.082 0-0.177 0.055-0.285 0.163-0.054 0.054-0.109 0.108-0.162 0.162-0.055 0.11-0.11 0.244-0.163 0.406-0.109 0.272-0.217 0.569-0.325 0.894-0.055 0.488-0.136 1.084-0.244 1.788" />
        </g>
        <g transform="translate(1086.5 41.456)">
          <path d="m0 0c0 0.271-0.028 0.541-0.081 0.812-0.163 0.434-0.353 0.84-0.569 1.22l-0.081 0.081c-0.055 0-0.136 0.027-0.244 0.081h-0.081c-0.11-0.162-0.217-0.38-0.325-0.65v-0.163l-0.082-0.162c-0.054-0.109-0.081-0.244-0.081-0.407-0.109-0.596-0.109-1.11 0-1.543 0-0.272 0.081-0.461 0.244-0.569 0.053-0.11 0.108-0.163 0.162-0.163h0.082c0.053 0 0.081-0.028 0.081-0.081h0.081c0.216 0.053 0.406 0.134 0.569 0.244 0.162 0.108 0.271 0.297 0.325 0.569 0.053 0.215 0.053 0.459 0 0.731m5.526 3.007c0.053 0 0.094-0.028 0.122-0.082 0.027-0.054-0.014-0.109-0.122-0.162-0.487-0.162-0.786-0.272-0.894-0.325l-0.487-0.081-0.244-0.082-0.244-0.081-0.406-0.081-0.488-0.163c-0.109 0-0.272-0.028-0.488-0.081h-0.487c-0.65-0.055-1.247-0.055-1.788 0 0.163-0.272 0.297-0.569 0.406-0.894 0.054-0.271 0.108-0.569 0.163-0.894 0.053-0.325 0.053-0.623 0-0.893-0.055-0.38-0.191-0.706-0.406-0.976-0.163-0.109-0.326-0.217-0.488-0.325-0.163-0.054-0.325-0.081-0.488-0.081h-0.325c-0.109 0-0.19 0.027-0.243 0.081-0.218 0.053-0.38 0.163-0.488 0.325-0.216 0.216-0.378 0.515-0.488 0.894-0.108 0.541-0.108 1.165 0 1.869 0 0.163 0.028 0.297 0.082 0.406 0 0.054 0.028 0.135 0.081 0.244v0.244c0.109 0.271 0.244 0.514 0.406 0.732-0.109 0.107-0.216 0.189-0.325 0.243-0.162 0.163-0.162 0.338 0 0.529 0.163 0.189 0.325 0.203 0.488 0.04 0.108-0.055 0.216-0.109 0.325-0.163 0.053 0.054 0.134 0.108 0.244 0.163 0.108 0.108 0.243 0.216 0.406 0.325 0.053 0.054 0.108 0.081 0.162 0.081 0.054 0.054 0.108 0.082 0.163 0.082h0.081l0.081 0.081c0.271 0.053 0.448-0.068 0.529-0.366s-0.014-0.501-0.285-0.609h-0.162c-0.055-0.055-0.109-0.082-0.163-0.082-0.109-0.054-0.19-0.109-0.244-0.162l-0.081-0.081c0.163-0.055 0.325-0.109 0.488-0.163 0.541-0.162 1.138-0.217 1.788-0.162h0.487c0.216 0 0.379 0.026 0.488 0.081h0.487l0.488 0.081 0.163 0.082h0.243l0.488 0.162c0.108 0 0.406 0.081 0.894 0.244z" />
        </g>
        <g transform="translate(1066.2 39.967)">
          <path d="m0 0c2.751 1.097 4.483 3.684 5.604 6.311 0.633 1.485 1.12 3.042 1.466 4.619 0.398 1.82 0.61 3.675 0.764 5.531 0.078 0.936 0.141 1.873 0.204 2.811 0.033 0.475 0.065 0.95 0.099 1.425 0.016 0.22 0.033 0.438 0.05 0.657 0.018 0.232 0.079 0.497 0.059 0.729-0.032 0.368-0.703 0.145-0.867 0.01-0.135-0.11-0.164-0.336-0.217-0.495-0.073-0.219-0.143-0.439-0.211-0.66-0.265-0.855-0.495-1.722-0.694-2.596-0.819-3.582-1.141-7.265-1.17-10.934-8e-3 -0.924-7e-3 -1.851 0.04-2.774 0.046-0.877 0.141-1.761 0.397-2.604 0.421-1.389 1.413-2.721 2.901-3.041 0.322-0.069 0.651-0.077 0.977-0.043 0.126 0.013 0.367 0.048 0.451 0.154 0.083 0.105-0.075 0.095-0.152 0.088-1.362-0.142-2.559 0.955-3.136 2.087-0.761 1.494-0.784 3.268-0.804 4.908-0.042 3.493 0.162 7.002 0.781 10.444 0.173 0.962 0.378 1.918 0.623 2.864 0.119 0.461 0.247 0.92 0.385 1.376 0.066 0.22 0.136 0.441 0.207 0.661 0.039 0.12 0.079 0.241 0.119 0.361 0.027 0.077 0.051 0.234 0.121 0.281-0.063-0.031-0.127-0.063-0.19-0.094-0.451-0.16-0.259 0.059-0.232-0.173 0.01-0.092-0.017-0.199-0.025-0.292-0.02-0.242-0.039-0.486-0.057-0.729-0.035-0.462-0.067-0.925-0.098-1.388-0.062-0.901-0.121-1.803-0.191-2.703-0.141-1.804-0.324-3.607-0.67-5.385-0.31-1.592-0.766-3.159-1.363-4.668-0.535-1.356-1.197-2.676-2.071-3.848-0.905-1.215-2.058-2.264-3.479-2.83-0.08-0.032-0.204-0.097-0.089-0.152 0.114-0.054 0.364 0.05 0.468 0.092"/>
        </g>
        <g transform="translate(1020 49.727)">
          <path d="m0 0c-0.24-1.62-0.347-3.259-0.308-4.896 0.018-0.775 0.056-1.547 0.059-2.322 3e-3 -0.754-9e-3 -1.508-0.017-2.261-0.011-0.904-0.016-1.807 4e-3 -2.71 4e-3 -0.232 0.457-0.163 0.452 0.035-0.033 1.553 0.013 3.106 0.014 4.659 2e-3 1.584-0.111 3.163-0.03 4.747 0.048 0.932 0.142 1.861 0.279 2.784 0.033 0.223-0.423 0.163-0.453-0.036" />
        </g>
        <g transform="translate(961.13 38.31)">
          <path d="m0 0c-0.215-1.062-0.189-2.167 0.088-3.215 0.114-0.432 0.256-0.875 0.594-1.187 0.244-0.226 0.581-0.327 0.885-0.15 0.381 0.222 0.503 0.776 0.644 1.161 0.178 0.483 0.337 0.974 0.479 1.469 0.299 1.043 0.522 2.106 0.7 3.175 0.352 2.117 0.528 4.256 0.757 6.387 0.235 2.182 0.558 4.338 1.096 6.467 0.616 2.431 1.374 4.85 1.522 7.369 6e-3 0.11-0.22 0.075-0.226-0.02-0.195-2.707-0.085-5.434 0.324-8.117 0.412-2.698 1.125-5.352 2.128-7.891 0.126-0.317 0.256-0.633 0.39-0.947 0.11-0.256 0.21-0.553 0.422-0.747 0.398-0.363 0.971-0.126 1.344 0.149 0.871 0.64 1.555 1.584 2.076 2.52 1.106 1.99 1.591 4.254 2.137 6.443 0.692 2.78 1.553 5.518 2.586 8.191 0.128 0.333 0.26 0.666 0.394 0.997 0.047 0.116-0.174 0.104-0.213 0.021-1.794-3.855-2.062-8.19-1.754-12.375 0.157-2.138 0.444-4.273 0.838-6.38 0.397-2.123 0.93-4.225 1.683-6.251 0.414-1.112 0.895-2.201 1.452-3.25 0.482-0.909 1.041-1.864 2.025-2.295 0.088-0.038 0.259 0.088 0.131 0.144-0.881 0.386-1.412 1.25-1.852 2.063-0.515 0.951-0.965 1.937-1.359 2.944-0.769 1.969-1.322 4.016-1.737 6.087-0.413 2.061-0.708 4.151-0.896 6.244-0.187 2.087-0.243 4.193-0.054 6.282 0.212 2.332 0.745 4.638 1.736 6.766l-0.213 0.021c-1.022-2.533-1.896-5.125-2.612-7.762-0.605-2.227-1.019-4.531-1.922-6.666-0.424-1.002-0.964-1.963-1.685-2.783-0.179-0.202-0.368-0.396-0.567-0.579-0.223-0.206-0.469-0.426-0.764-0.521-0.352-0.114-0.616 0.064-0.78 0.37-0.156 0.292-0.272 0.611-0.397 0.916-0.998 2.427-1.729 4.963-2.182 7.548-0.456 2.602-0.63 5.252-0.511 7.891 0.014 0.329 0.034 0.658 0.058 0.987-0.076-7e-3 -0.151-0.013-0.226-0.02-0.125-2.128-0.686-4.191-1.229-6.243-0.271-1.025-0.537-2.052-0.743-3.093-0.2-1.005-0.35-2.02-0.477-3.037-0.506-4.057-0.621-8.23-1.975-12.126-0.091-0.263-0.187-0.524-0.29-0.782-0.093-0.235-0.21-0.624-0.506-0.663-0.234-0.032-0.448 0.176-0.581 0.343-0.155 0.195-0.253 0.417-0.328 0.653-0.363 1.133-0.42 2.347-0.184 3.512 0.021 0.105-0.207 0.074-0.226-0.02" />
        </g>
      </g>
    </g>
  </g>
</svg>
